<svg width="234" height="66" viewBox="0 0 234 66" fill="none" xmlns="http://www.w3.org/2000/svg">
<path d="M225.339 36.5905C226.631 36.5905 227.678 35.5412 227.678 34.2469C227.678 32.9526 226.631 31.9033 225.339 31.9033C224.047 31.9033 223 32.9526 223 34.2469C223 35.5412 224.047 36.5905 225.339 36.5905Z" fill="#FEB241"/>
<path d="M67.5754 14.6999C68.6578 14.6909 69.7303 14.9072 70.7248 15.3352C71.679 15.7355 72.5491 16.3127 73.2895 17.0365C74.0332 17.7842 74.6225 18.6717 75.0232 19.648C75.424 20.6243 75.6286 21.6704 75.6251 22.726C75.6336 23.7952 75.4188 24.8543 74.9944 25.8355C74.589 26.7841 74.0067 27.6466 73.2789 28.3767C72.5311 29.1235 71.6428 29.7141 70.6657 30.1146C69.6885 30.5151 68.6417 30.7173 67.586 30.7097H62.7808V35.1251C62.7842 35.3185 62.7471 35.5105 62.6719 35.6886C62.5966 35.8667 62.4849 36.027 62.344 36.1592C62.2094 36.2964 62.0487 36.4052 61.8714 36.4792C61.6942 36.5531 61.5038 36.5908 61.3118 36.5898C61.1129 36.5914 60.9154 36.5543 60.7306 36.4804C60.5528 36.4094 60.3903 36.3052 60.2515 36.1733C60.1172 36.0417 60.0106 35.8845 59.9379 35.7109C59.8624 35.5299 59.824 35.3355 59.8252 35.1392V16.1717C59.82 15.9745 59.8563 15.7783 59.9316 15.596C60.0068 15.4135 60.1193 15.249 60.262 15.1129C60.4004 14.9742 60.5653 14.8648 60.747 14.7913C60.9285 14.718 61.1231 14.6821 61.3189 14.6858L67.5754 14.6999ZM62.7808 17.6577V27.7661H67.6106C68.307 27.774 68.9969 27.6307 69.6328 27.3461C70.233 27.0814 70.777 26.704 71.2356 26.2343C71.6875 25.7746 72.0463 25.2317 72.2925 24.6355C72.5415 24.0348 72.6684 23.3904 72.6659 22.7401C72.6668 22.09 72.5362 21.4464 72.2819 20.8483C72.0297 20.2479 71.6718 19.698 71.2251 19.2247C70.7746 18.7456 70.2349 18.3594 69.6362 18.0882C69.0114 17.7993 68.3305 17.6523 67.6423 17.6577H62.7808Z" fill="black"/>
<path d="M83.9652 33.625C84.1611 33.6198 84.3558 33.6579 84.5354 33.7366C84.7151 33.8153 84.8752 33.9327 85.0044 34.0803C85.2729 34.3669 85.4206 34.7462 85.4166 35.1391C85.4222 35.3296 85.3884 35.5191 85.3175 35.6958C85.2466 35.8725 85.14 36.0327 85.0044 36.1663C84.8682 36.3018 84.7057 36.4081 84.527 36.4785C84.3483 36.5488 84.1571 36.582 83.9652 36.5757H83.8947C83.1527 36.5828 82.4167 36.4437 81.7282 36.1663C81.0776 35.91 80.4847 35.526 79.9844 35.0368C79.4834 34.5342 79.0912 33.9335 78.8325 33.272C78.5445 32.5495 78.4019 31.777 78.4132 30.9991V16.034C78.4084 15.8392 78.442 15.6455 78.5122 15.4638C78.5823 15.282 78.6875 15.116 78.8219 14.9752C78.9505 14.8372 79.1067 14.7277 79.2803 14.6542C79.4538 14.5805 79.641 14.5445 79.8295 14.5481C80.224 14.5461 80.6035 14.6995 80.8862 14.9752C81.0315 15.11 81.1467 15.274 81.2243 15.4565C81.302 15.6389 81.3405 15.8357 81.3372 16.034V31.0167C81.3191 31.3728 81.3742 31.7289 81.4989 32.0628C81.6238 32.3967 81.8157 32.7013 82.0629 32.9579C82.5837 33.424 83.2679 33.6639 83.9652 33.625Z" fill="black"/>
<path d="M90.6904 28.9448C90.686 29.5945 90.8049 30.2391 91.0427 30.8436C91.5068 32.0142 92.4111 32.955 93.562 33.4626C94.161 33.7264 94.8096 33.86 95.4636 33.8543C96.1061 33.8629 96.7432 33.7291 97.328 33.4626C97.8693 33.2082 98.3502 32.8398 98.7371 32.3825C99.1311 31.9133 99.4346 31.3747 99.6316 30.7942C99.8455 30.1722 99.9528 29.5181 99.9484 28.8601V22.1541C99.9439 21.9563 99.9821 21.7598 100.058 21.5773C100.135 21.3949 100.248 21.2307 100.392 21.0951C100.531 20.9577 100.697 20.8492 100.878 20.7759C101.059 20.7026 101.254 20.666 101.449 20.6681C101.641 20.6651 101.832 20.7014 102.01 20.7748C102.187 20.8483 102.348 20.9573 102.482 21.0951C102.619 21.234 102.728 21.3994 102.8 21.5814C102.871 21.7635 102.906 21.9583 102.901 22.1541V28.8601C102.907 29.9142 102.722 30.9607 102.355 31.9484C102.009 32.8806 101.488 33.7375 100.819 34.4719C100.155 35.1914 99.353 35.77 98.462 36.1732C97.5259 36.5946 96.5107 36.8088 95.4849 36.8014C94.4618 36.8048 93.4493 36.6029 92.5051 36.2077C91.5609 35.8124 90.7055 35.2319 89.9894 34.5002C88.541 33.0098 87.7318 31.0109 87.7349 28.9307V22.1575C87.7346 21.9607 87.7754 21.7659 87.8547 21.5857C87.9328 21.4113 88.04 21.2513 88.1717 21.1128C88.3019 20.9769 88.4591 20.8699 88.6332 20.7987C88.9991 20.6481 89.4091 20.6481 89.7747 20.7987C89.9513 20.8703 90.1119 20.9772 90.2468 21.1128C90.3816 21.2501 90.4917 21.4102 90.5706 21.5857C90.6496 21.7659 90.6904 21.9607 90.6904 22.1575V28.9448Z" fill="black"/>
<path d="M114.705 23.644H114.687C113.954 23.6413 113.228 23.7904 112.556 24.0816C111.897 24.3612 111.3 24.765 110.794 25.2711C110.287 25.7777 109.88 26.3767 109.596 27.0358C109.298 27.7239 109.147 28.4669 109.152 29.2171V35.1183C109.16 35.3134 109.127 35.5078 109.057 35.6899C108.987 35.8719 108.88 36.0378 108.743 36.1772C108.614 36.3128 108.457 36.4198 108.284 36.4915C108.11 36.5633 107.923 36.598 107.736 36.5937C107.337 36.6024 106.951 36.4527 106.662 36.1772C106.517 36.0427 106.402 35.8786 106.325 35.6959C106.249 35.5133 106.212 35.3163 106.218 35.1183V29.2205C106.211 28.0829 106.437 26.9559 106.883 25.9099C107.314 24.8998 107.931 23.9801 108.702 23.1992C109.475 22.4204 110.391 21.7974 111.4 21.364C112.435 20.9112 113.554 20.6804 114.683 20.6863H114.771C114.979 20.6738 115.188 20.7048 115.383 20.7771C115.578 20.8494 115.755 20.9615 115.905 21.1063C116.04 21.2469 116.145 21.413 116.213 21.5949C116.283 21.7767 116.314 21.9707 116.307 22.1651C116.312 22.3629 116.275 22.5594 116.197 22.7418C116.121 22.9242 116.007 23.0885 115.864 23.2239C115.719 23.3643 115.548 23.4744 115.361 23.5476C115.172 23.6209 114.973 23.6561 114.771 23.651L114.705 23.644Z" fill="black"/>
<path d="M116.992 28.6384C116.986 27.5466 117.204 26.4653 117.634 25.4618C118.048 24.4921 118.646 23.6122 119.395 22.8712C120.141 22.1314 121.022 21.5398 121.988 21.1276C122.984 20.7064 124.055 20.4893 125.137 20.4893C126.219 20.4893 127.29 20.7064 128.286 21.1276C130.223 21.95 131.769 23.4866 132.605 25.4195C133.041 26.4118 133.268 27.4837 133.272 28.5678V35.0832C133.275 35.2826 133.239 35.4808 133.164 35.6657C133.09 35.8507 132.979 36.0187 132.838 36.1597C132.698 36.3048 132.529 36.4193 132.342 36.4958C132.155 36.5723 131.955 36.6093 131.753 36.6045C131.559 36.6106 131.366 36.574 131.187 36.4972C131.009 36.4203 130.85 36.3051 130.721 36.1597C130.453 35.8661 130.31 35.4805 130.319 35.0832L130.302 34.7303C129.599 35.3571 128.801 35.8682 127.938 36.2444C127.058 36.6288 126.108 36.8248 125.148 36.8197C124.058 36.8268 122.978 36.6081 121.977 36.1774C120.025 35.3435 118.469 33.7872 117.634 31.8326C117.201 30.8241 116.982 29.7362 116.992 28.6384ZM119.93 28.6384C119.927 29.3299 120.067 30.0147 120.339 30.6502C120.604 31.2671 120.98 31.8295 121.448 32.309C121.924 32.7866 122.486 33.1687 123.104 33.4349C123.745 33.7169 124.438 33.86 125.137 33.8549C125.836 33.8621 126.528 33.7188 127.167 33.4349C127.779 33.1661 128.336 32.7841 128.808 32.309C129.276 31.8307 129.649 31.2678 129.907 30.6502C130.305 29.6998 130.413 28.6523 130.218 27.6402C130.022 26.6281 129.531 25.6969 128.808 24.9642C128.336 24.4923 127.779 24.1149 127.167 23.8524C126.526 23.5798 125.836 23.4393 125.141 23.4393C124.445 23.4393 123.756 23.5798 123.115 23.8524C122.497 24.1138 121.936 24.4912 121.459 24.9642C120.983 25.4353 120.602 25.9952 120.339 26.6124C120.066 27.2526 119.927 27.9421 119.93 28.6384Z" fill="black"/>
<path d="M142.409 33.625C142.608 33.6177 142.806 33.6548 142.989 33.7335C143.172 33.8123 143.335 33.9307 143.466 34.0804C143.733 34.3682 143.879 34.7469 143.875 35.1392C143.88 35.3291 143.845 35.518 143.775 35.6945C143.705 35.871 143.6 36.0314 143.466 36.1662C143.328 36.3041 143.163 36.4116 142.981 36.4821C142.799 36.5526 142.605 36.5844 142.409 36.5757H142.339C141.597 36.5834 140.861 36.4443 140.172 36.1662C139.522 35.9077 138.929 35.5213 138.429 35.0298C137.928 34.5272 137.536 33.9264 137.277 33.265C136.992 32.5417 136.851 31.7696 136.862 30.992V16.0341C136.855 15.8392 136.889 15.6452 136.959 15.4634C137.029 15.2815 137.135 15.1156 137.27 14.9753C137.398 14.8368 137.555 14.7272 137.728 14.6535C137.902 14.58 138.089 14.544 138.277 14.5482C138.672 14.5461 139.052 14.6995 139.334 14.9753C139.479 15.1101 139.595 15.2741 139.672 15.4565C139.75 15.639 139.788 15.8358 139.785 16.0341V31.0167C139.756 31.3684 139.805 31.722 139.927 32.0529C140.049 32.3838 140.242 32.6841 140.492 32.9325C140.742 33.1809 141.043 33.3716 141.374 33.4912C141.706 33.6109 142.059 33.6566 142.409 33.625Z" fill="black"/>
<path d="M164.466 17.8481C164.601 17.9802 164.709 18.1383 164.782 18.313C164.856 18.4876 164.893 18.6752 164.892 18.8646C164.891 19.2547 164.736 19.6285 164.461 19.9043C164.186 20.1801 163.812 20.3354 163.423 20.3364C163.227 20.3438 163.032 20.3102 162.85 20.2379C162.668 20.1656 162.503 20.0561 162.366 19.9164C161.594 19.1278 160.668 18.5057 159.647 18.0882C158.667 17.6922 157.62 17.4885 156.564 17.4881C155.474 17.4805 154.394 17.6992 153.393 18.1304C151.44 18.9526 149.886 20.5084 149.064 22.4647C148.222 24.4845 148.213 26.7561 149.039 28.7825C149.435 29.7503 150.009 30.6351 150.73 31.3908C151.455 32.1509 152.321 32.7612 153.281 33.1872C154.292 33.638 155.39 33.8655 156.497 33.8543C157.548 33.8691 158.592 33.681 159.572 33.3002C160.6 32.8816 161.534 32.2625 162.32 31.479C162.455 31.3426 162.617 31.2367 162.796 31.1684C162.974 31.1018 163.162 31.0672 163.352 31.0661C163.54 31.0661 163.728 31.0983 163.905 31.1613C164.086 31.2231 164.25 31.3257 164.384 31.4614C164.531 31.595 164.642 31.7622 164.709 31.9484C164.776 32.1293 164.809 32.3204 164.811 32.5131C164.81 32.7002 164.776 32.8856 164.709 33.0602C164.642 33.2369 164.537 33.397 164.402 33.5297C163.351 34.6009 162.089 35.4421 160.696 36.0003C159.351 36.535 157.916 36.8069 156.469 36.8014C155.48 36.8043 154.495 36.6701 153.542 36.4027C152.62 36.1426 151.736 35.7654 150.91 35.2802C149.273 34.3114 147.913 32.9366 146.961 31.2884C146.479 30.4559 146.106 29.5651 145.851 28.6378C145.584 27.6771 145.452 26.6842 145.457 25.6871C145.456 24.7193 145.582 23.7556 145.833 22.8212C146.076 21.9032 146.431 21.0188 146.89 20.1882C147.353 19.3597 147.917 18.5926 148.57 17.9045C149.231 17.2101 149.979 16.606 150.797 16.1081C151.635 15.6017 152.537 15.2089 153.478 14.9398C154.474 14.6538 155.506 14.5124 156.543 14.5198C157.977 14.5196 159.398 14.8014 160.725 15.3492C162.127 15.9206 163.399 16.7706 164.466 17.8481Z" fill="black"/>
<path d="M166.888 28.6376C166.881 27.5462 167.098 26.4649 167.526 25.4611C167.94 24.4914 168.538 23.6115 169.288 22.8705C170.034 22.1306 170.914 21.539 171.881 21.127C172.883 20.7009 173.962 20.4814 175.051 20.4814C176.14 20.4814 177.218 20.7009 178.221 21.127C180.166 21.9579 181.715 23.5113 182.541 25.4611C182.961 26.4671 183.178 27.5469 183.178 28.6376C183.178 29.7285 182.961 30.8083 182.541 31.8143C182.127 32.7799 181.535 33.6588 180.797 34.4049C180.06 35.1536 179.186 35.7528 178.221 36.1697C177.218 36.5956 176.14 36.8151 175.051 36.8151C173.962 36.8151 172.883 36.5956 171.881 36.1697C169.928 35.3358 168.372 33.7795 167.537 31.8248C167.102 30.819 166.881 29.7336 166.888 28.6376ZM169.823 28.6376C169.82 29.3293 169.96 30.014 170.232 30.6495C170.496 31.2664 170.873 31.8288 171.341 32.3083C171.817 32.7859 172.379 33.168 172.997 33.4342C173.638 33.7162 174.33 33.8594 175.03 33.8543C175.728 33.8614 176.42 33.7182 177.059 33.4342C177.672 33.1654 178.229 32.7834 178.7 32.3083C179.169 31.83 179.541 31.2671 179.8 30.6495C180.198 29.6991 180.306 28.6516 180.111 27.6395C179.915 26.6274 179.424 25.6962 178.7 24.9635C178.229 24.4915 177.672 24.1142 177.059 23.8517C176.418 23.5791 175.729 23.4387 175.034 23.4387C174.337 23.4387 173.648 23.5791 173.008 23.8517C172.39 24.1131 171.828 24.4906 171.352 24.9635C170.876 25.4355 170.496 25.9952 170.232 26.6117C169.956 27.2514 169.814 27.941 169.816 28.6376H169.823Z" fill="black"/>
<path d="M201.11 28.6207V28.723C201.107 29.8057 200.878 30.8757 200.438 31.8643C200.012 32.8193 199.414 33.6878 198.676 34.4268C197.938 35.1683 197.061 35.7581 196.097 36.1633C195.108 36.5882 194.042 36.8044 192.966 36.7986C191.876 36.8047 190.796 36.5861 189.795 36.1562C188.827 35.7413 187.949 35.142 187.209 34.3914C186.472 33.6439 185.884 32.7622 185.476 31.7938C185.058 30.7869 184.844 29.7074 184.844 28.6172C184.844 27.527 185.058 26.4475 185.476 25.4406C186.294 23.4851 187.844 21.9289 189.795 21.1065C190.796 20.6766 191.876 20.4579 192.966 20.4641C193.922 20.4586 194.871 20.6297 195.766 20.9688C196.631 21.2969 197.437 21.7615 198.154 22.3453V16.0876C198.144 15.6829 198.292 15.29 198.567 14.9934C198.7 14.8471 198.864 14.7315 199.046 14.6547C199.229 14.5779 199.426 14.5418 199.624 14.5487C199.821 14.5445 200.017 14.5819 200.199 14.6585C200.382 14.7351 200.545 14.8492 200.681 14.9934C200.823 15.1372 200.934 15.3082 201.008 15.4962C201.083 15.6842 201.119 15.8853 201.114 16.0876L201.11 28.6207ZM198.158 28.6384C198.162 27.9422 198.023 27.2526 197.75 26.6125C197.485 25.9956 197.109 25.4331 196.64 24.9536C196.159 24.47 195.586 24.0871 194.956 23.8271C194.326 23.5672 193.65 23.4354 192.969 23.4395C192.269 23.4336 191.574 23.5705 190.929 23.8418C190.313 24.0999 189.754 24.4778 189.284 24.9536C188.814 25.4306 188.439 25.9938 188.181 26.6125C187.917 27.2524 187.78 27.9384 187.78 28.6313C187.78 29.3242 187.917 30.0103 188.181 30.6502C188.703 31.9001 189.688 32.8985 190.929 33.435C191.571 33.712 192.261 33.855 192.961 33.855C193.659 33.855 194.349 33.712 194.991 33.435C195.607 33.168 196.167 32.7858 196.64 32.3091C197.109 31.8296 197.485 31.2671 197.75 30.6502C198.022 30.0147 198.161 29.3299 198.158 28.6384Z" fill="black"/>
<path d="M207.239 29.9728C207.346 30.5301 207.558 31.0618 207.862 31.5399C208.458 32.4837 209.354 33.1978 210.406 33.5658C210.957 33.7615 211.538 33.8594 212.122 33.8553C212.8 33.8642 213.474 33.7443 214.108 33.5023C214.686 33.2864 215.204 32.9356 215.62 32.4788C215.849 32.3045 216.116 32.184 216.399 32.1258C216.635 32.0878 216.876 32.1084 217.103 32.1858C217.249 32.2416 217.382 32.3269 217.494 32.4364C217.609 32.5422 217.712 32.6605 217.801 32.7893C217.984 33.0796 218.071 33.4205 218.05 33.7635C218.033 33.9589 217.975 34.1483 217.879 34.3193C217.783 34.4903 217.652 34.6389 217.494 34.7553C217.204 35.0434 216.89 35.3067 216.557 35.5423C216.183 35.8026 215.781 36.0204 215.359 36.1918C214.886 36.3839 214.395 36.5293 213.894 36.6259C213.313 36.7397 212.723 36.7953 212.132 36.7918C211.043 36.7972 209.964 36.5785 208.962 36.1494C207.995 35.7373 207.116 35.1457 206.369 34.4059C205.62 33.6635 205.022 32.7824 204.607 31.8117C204.188 30.8055 203.971 29.7257 203.971 28.6352C203.971 27.5445 204.188 26.4648 204.607 25.4586C205.022 24.4889 205.62 23.609 206.369 22.8679C207.116 22.1281 207.995 21.5365 208.962 21.1244C209.965 20.7019 211.043 20.4844 212.132 20.4844C213.221 20.4844 214.299 20.7019 215.303 21.1244C217.25 21.9466 218.807 23.4868 219.654 25.4268C220.094 26.4206 220.324 27.4949 220.33 28.5822C220.336 28.7691 220.303 28.9553 220.235 29.129C220.166 29.3027 220.061 29.4602 219.928 29.5917C219.788 29.7247 219.621 29.828 219.44 29.8953C219.258 29.9626 219.064 29.9926 218.871 29.9834L207.239 29.9728ZM217.258 27.5021C217.168 26.9224 216.968 26.3653 216.669 25.8609C216.374 25.3686 215.991 24.9334 215.542 24.5762C215.084 24.2143 214.568 23.9316 214.017 23.7397C213.429 23.538 212.81 23.4366 212.188 23.4397C211.57 23.4346 210.954 23.5385 210.371 23.7468C209.824 23.9452 209.314 24.2314 208.86 24.5939C208.418 24.951 208.045 25.3864 207.76 25.8786C207.468 26.3824 207.269 26.9347 207.172 27.5093L217.258 27.5021Z" fill="black"/>
<path d="M119.143 44.2881H120.277L123.349 51.3471H122.052L121.348 49.6565H118.05L117.346 51.3471H116.088L119.143 44.2881ZM120.904 48.5517L119.699 45.7563L118.501 48.5517H120.904Z" fill="#FEB241"/>
<path d="M123.798 47.8525V47.8313C123.786 47.3538 123.871 46.8788 124.047 46.4352C124.224 45.9915 124.488 45.5883 124.825 45.2501C125.161 44.9119 125.563 44.6456 126.005 44.4675C126.448 44.2893 126.922 44.2029 127.398 44.2136C127.904 44.1942 128.408 44.281 128.877 44.4682C129.348 44.6554 129.774 44.939 130.129 45.3007L129.342 46.2113C129.09 45.9447 128.787 45.7307 128.451 45.5817C128.116 45.4327 127.755 45.3516 127.387 45.343C127.072 45.3487 126.763 45.4178 126.475 45.5461C126.187 45.6743 125.929 45.8591 125.713 46.0896C125.498 46.3201 125.332 46.5915 125.224 46.8876C125.116 47.1838 125.068 47.4987 125.084 47.8137V47.8313C125.084 49.2007 126.052 50.3019 127.387 50.3019C127.766 50.2994 128.139 50.218 128.484 50.0631C128.829 49.9082 129.138 49.683 129.392 49.4019L130.177 50.2031C129.829 50.6056 129.395 50.9255 128.908 51.1398C128.42 51.354 127.892 51.4572 127.359 51.442C126.889 51.4472 126.421 51.3578 125.985 51.179C125.55 51.0002 125.154 50.7357 124.822 50.401C124.489 50.0664 124.228 49.6684 124.052 49.2307C123.876 48.7929 123.79 48.3242 123.798 47.8525Z" fill="#FEB241"/>
<path d="M133.935 44.2881H135.074L138.142 51.3471H136.845L136.141 49.6565H132.826L132.122 51.3471H130.863L133.935 44.2881ZM135.697 48.5517L134.493 45.7563L133.295 48.5517H135.697Z" fill="#FEB241"/>
<path d="M139.34 44.3379H141.94C144.135 44.3379 145.65 45.845 145.65 47.8144V47.8321C145.65 49.8015 144.135 51.3298 141.94 51.3298H139.34V44.3379ZM140.566 45.4567V50.2145H141.94C143.405 50.2145 144.364 49.2262 144.364 47.8568V47.8356C144.375 47.5159 144.32 47.1973 144.202 46.9002C144.084 46.6031 143.905 46.3341 143.677 46.1104C143.449 45.8867 143.176 45.7133 142.877 45.6014C142.577 45.4894 142.259 45.4413 141.94 45.4602L140.566 45.4567Z" fill="#FEB241"/>
<path d="M147.133 44.3379H152.308V45.4355H148.36V47.2533H151.851V48.3509H148.349V50.2145H152.347V51.3157H147.133V44.3379Z" fill="#FEB241"/>
<path d="M153.812 44.3379H155.119L157.233 47.6414L159.347 44.3379H160.657V51.3298H159.431V46.332L157.226 49.6285H157.188L155.021 46.332V51.3262H153.816L153.812 44.3379Z" fill="#FEB241"/>
<path d="M164.532 48.5732L161.76 44.3379H163.218L165.159 47.4226L167.135 44.3379H168.545L165.772 48.5415V51.3298H164.532V48.5732Z" fill="#FEB241"/>
<path d="M111.63 46.0312H59.6191V49.1054H111.63V46.0312Z" fill="#FEB241"/>
<path d="M226.968 46.0312H174.957V49.1054H226.968V46.0312Z" fill="#FEB241"/>
<path d="M51.9043 32.9897C51.9047 36.0282 51.3078 39.0371 50.1475 41.8444C48.9872 44.6518 47.2864 47.2027 45.142 49.3514C42.9976 51.5001 40.4519 53.2046 37.65 54.3675C34.848 55.5304 31.845 56.1289 28.8121 56.1289C28.3083 56.1289 27.8117 56.1114 27.3185 56.0796C26.492 56.0263 25.6688 55.9298 24.8525 55.7901C20.5189 55.0353 16.4906 53.0563 13.2413 50.0858C9.99209 47.1155 7.65702 43.2772 6.51082 39.0225C5.36462 34.7679 5.45492 30.2738 6.77113 26.0688C8.08732 21.8638 10.5746 18.1229 13.9406 15.2859C17.3065 12.4489 21.4111 10.634 25.7715 10.0545C30.1319 9.47495 34.5668 10.155 38.5546 12.0147C42.5424 13.8743 45.9172 16.8362 48.2821 20.5519C50.647 24.2676 51.9037 28.5828 51.9043 32.9897Z" fill="#2334A8"/>
<path d="M38.7007 34.8218C38.6393 34.146 38.5214 33.4766 38.3484 32.8205C37.9574 31.2949 37.2611 29.8647 36.3017 28.617C36.1854 28.4687 36.0656 28.324 35.9494 28.1793C35.0921 27.1624 34.066 26.3015 32.9163 25.6345C31.6006 24.8777 30.1546 24.376 28.6536 24.1557C27.0844 23.9234 25.4843 24.0196 23.9542 24.438L13.3574 27.1205C13.7097 28.5534 18.5783 48.1914 20.1283 54.4351C21.6529 55.0539 23.2389 55.5083 24.8595 55.7905C24.8587 55.5975 24.8339 55.4054 24.7855 55.2187L23.1369 48.9609L23.9788 48.7385L28.0019 47.6797L29.9394 47.1644C31.4382 46.777 32.846 46.0968 34.0816 45.1628C35.3174 44.2288 36.3568 43.0595 37.1401 41.7219C37.8959 40.4161 38.3991 38.9792 38.6232 37.4865C38.7559 36.6047 38.7819 35.71 38.7007 34.8218ZM34.3394 36.763C34.281 37.1939 34.1855 37.6191 34.0541 38.0336C33.9018 38.5168 33.6999 38.9828 33.4517 39.4243C32.9735 40.2606 32.3425 40.9993 31.5917 41.6019C30.7939 42.2409 29.869 42.7019 28.8791 42.9537L26.8111 43.5078L22.848 44.5667L22.0236 44.782L18.5994 31.7794L18.2471 30.4487L25.1484 28.6275C26.1224 28.3588 27.1438 28.3094 28.1393 28.4828C28.326 28.5145 28.4915 28.5569 28.6853 28.5993C29.4378 28.7873 30.1568 29.091 30.8166 29.4993C31.6234 30.0069 32.3332 30.6547 32.9127 31.4123C33.099 31.654 33.2696 31.9075 33.4235 32.1711C33.7493 32.7224 33.9971 33.3163 34.1598 33.9359C34.4063 34.8569 34.4674 35.818 34.3394 36.763Z" fill="white"/>
<path d="M43.8507 40.5295C43.6184 42.5306 42.9455 44.4552 41.8806 46.1643C40.8157 47.8733 39.3854 49.3241 37.6928 50.412C35.6399 51.7107 33.4767 52.8256 31.2285 53.7439L31.7428 55.9428C30.7708 56.0676 29.7917 56.1301 28.8118 56.1297C28.308 56.1297 27.8113 56.1121 27.3181 56.0803L26.0464 50.3803C26.0464 50.3803 46.75 46.9214 38.8131 29.8916C40.5932 30.983 42.0177 32.5702 42.9122 34.4593C43.8069 36.3484 44.133 38.4577 43.8507 40.5295Z" fill="white"/>
</svg>
