<svg width="16" height="20" viewBox="0 0 16 20" fill="none" xmlns="http://www.w3.org/2000/svg">
<path fill-rule="evenodd" clip-rule="evenodd" d="M0.875 18.9062V2.875C0.875 2.24511 1.12522 1.64102 1.57062 1.19562C2.01602 0.750223 2.62011 0.5 3.25 0.5L12.75 0.5C13.3799 0.5 13.984 0.750223 14.4294 1.19562C14.8748 1.64102 15.125 2.24511 15.125 2.875V18.9062C15.1251 19.0094 15.0983 19.1107 15.0473 19.2003C14.9963 19.2899 14.9229 19.3647 14.8342 19.4173C14.7455 19.4699 14.6447 19.4986 14.5416 19.5003C14.4385 19.5021 14.3367 19.4771 14.2463 19.4276L8 16.0194L1.75375 19.4276C1.6633 19.4771 1.56152 19.5021 1.45842 19.5003C1.35533 19.4986 1.25449 19.4699 1.16581 19.4173C1.07713 19.3647 1.00368 19.2899 0.952692 19.2003C0.9017 19.1107 0.874925 19.0094 0.875 18.9062ZM11.3891 7.45163C11.5006 7.34013 11.5632 7.18892 11.5632 7.03125C11.5632 6.87358 11.5006 6.72237 11.3891 6.61087C11.2776 6.49938 11.1264 6.43675 10.9688 6.43675C10.8111 6.43675 10.6599 6.49938 10.5484 6.61087L7.40625 9.75419L6.04538 8.39212C5.99017 8.33692 5.92463 8.29313 5.85251 8.26325C5.78038 8.23338 5.70307 8.218 5.625 8.218C5.54693 8.218 5.46962 8.23338 5.39749 8.26325C5.32537 8.29313 5.25983 8.33692 5.20463 8.39212C5.14942 8.44733 5.10563 8.51287 5.07575 8.58499C5.04588 8.65712 5.0305 8.73443 5.0305 8.8125C5.0305 8.89057 5.04588 8.96788 5.07575 9.04001C5.10563 9.11213 5.14942 9.17767 5.20463 9.23288L6.98587 11.0141C7.04103 11.0694 7.10655 11.1133 7.17868 11.1432C7.25082 11.1732 7.32815 11.1886 7.40625 11.1886C7.48435 11.1886 7.56168 11.1732 7.63382 11.1432C7.70595 11.1133 7.77147 11.0694 7.82663 11.0141L11.3891 7.45163Z" fill="url(#paint0_linear_802_276)"/>
<defs>
<linearGradient id="paint0_linear_802_276" x1="8" y1="0.5" x2="8" y2="19.5004" gradientUnits="userSpaceOnUse">
<stop stop-color="#4D30C7"/>
<stop offset="1" stop-color="#18007E"/>
</linearGradient>
</defs>
</svg>
