<svg width="283" height="374" viewBox="0 0 283 374" fill="none" xmlns="http://www.w3.org/2000/svg">
<path d="M279.811 3.3846C279.811 4.99185 280.316 6.29468 280.939 6.29468C281.562 6.29468 282.067 4.99186 282.067 3.3846C282.067 1.77734 281.562 0.474365 280.939 0.474365C280.316 0.474365 279.811 1.77734 279.811 3.3846Z" fill="#FFB341"/>
<path d="M279.811 36.8031C279.811 38.4104 280.316 39.7134 280.939 39.7134C281.562 39.7134 282.067 38.4104 282.067 36.8031C282.067 35.1958 281.562 33.8928 280.939 33.8928C280.316 33.8928 279.811 35.1958 279.811 36.8031Z" fill="#FFB341"/>
<path d="M279.811 70.2225C279.811 71.8297 280.316 73.1327 280.939 73.1327C281.562 73.1327 282.067 71.8297 282.067 70.2225C282.067 68.6152 281.562 67.3123 280.939 67.3123C280.316 67.3123 279.811 68.6152 279.811 70.2225Z" fill="#FFB341"/>
<path d="M279.811 103.641C279.811 105.248 280.316 106.551 280.939 106.551C281.562 106.551 282.067 105.248 282.067 103.641C282.067 102.033 281.562 100.73 280.939 100.73C280.316 100.73 279.811 102.033 279.811 103.641Z" fill="#FFB341"/>
<path d="M279.811 137.061C279.811 138.668 280.316 139.971 280.939 139.971C281.562 139.971 282.067 138.668 282.067 137.061C282.067 135.453 281.562 134.15 280.939 134.15C280.316 134.15 279.811 135.453 279.811 137.061Z" fill="#FFB341"/>
<path d="M280.939 173.389C280.318 173.389 279.811 172.079 279.811 170.479C279.811 168.878 280.318 167.568 280.939 167.568C281.56 167.568 282.067 168.878 282.067 170.479C282.067 172.104 281.56 173.389 280.939 173.389Z" fill="#FFB341"/>
<path d="M279.811 203.922C279.811 205.529 280.316 206.832 280.939 206.832C281.562 206.832 282.067 205.529 282.067 203.922C282.067 202.315 281.562 201.012 280.939 201.012C280.316 201.012 279.811 202.315 279.811 203.922Z" fill="#FFB341"/>
<path d="M279.811 237.34C279.811 238.948 280.316 240.25 280.939 240.25C281.562 240.25 282.067 238.948 282.067 237.34C282.067 235.733 281.562 234.43 280.939 234.43C280.316 234.43 279.811 235.733 279.811 237.34Z" fill="#FFB341"/>
<path d="M280.939 273.67C280.318 273.67 279.811 272.361 279.811 270.76C279.811 269.159 280.318 267.85 280.939 267.85C281.56 267.85 282.067 269.159 282.067 270.76C282.067 272.361 281.56 273.67 280.939 273.67Z" fill="#FFB341"/>
<path d="M279.811 304.179C279.811 305.786 280.316 307.089 280.939 307.089C281.562 307.089 282.067 305.786 282.067 304.179C282.067 302.571 281.562 301.268 280.939 301.268C280.316 301.268 279.811 302.571 279.811 304.179Z" fill="#FFB341"/>
<path d="M279.811 337.598C279.811 339.205 280.316 340.508 280.939 340.508C281.562 340.508 282.067 339.205 282.067 337.598C282.067 335.991 281.562 334.688 280.939 334.688C280.316 334.688 279.811 335.991 279.811 337.598Z" fill="#FFB341"/>
<path d="M279.811 371.016C279.811 372.624 280.316 373.927 280.939 373.927C281.562 373.927 282.067 372.624 282.067 371.016C282.067 369.409 281.562 368.106 280.939 368.106C280.316 368.106 279.811 369.409 279.811 371.016Z" fill="#FFB341"/>
<path d="M267.136 3.3846C267.136 4.99185 267.641 6.29468 268.264 6.29468C268.887 6.29468 269.392 4.99185 269.392 3.3846C269.392 1.77734 268.887 0.474365 268.264 0.474365C267.641 0.474365 267.136 1.77734 267.136 3.3846Z" fill="#FFB341"/>
<path d="M267.136 36.8031C267.136 38.4104 267.641 39.7133 268.264 39.7133C268.887 39.7133 269.392 38.4104 269.392 36.8031C269.392 35.1958 268.887 33.8928 268.264 33.8928C267.641 33.8928 267.136 35.1958 267.136 36.8031Z" fill="#FFB341"/>
<path d="M267.136 70.2225C267.136 71.8298 267.641 73.1328 268.264 73.1328C268.887 73.1328 269.392 71.8298 269.392 70.2225C269.392 68.6152 268.887 67.3123 268.264 67.3123C267.641 67.3123 267.136 68.6152 267.136 70.2225Z" fill="#FFB341"/>
<path d="M267.136 103.641C267.136 105.248 267.641 106.551 268.264 106.551C268.887 106.551 269.392 105.248 269.392 103.641C269.392 102.033 268.887 100.73 268.264 100.73C267.641 100.73 267.136 102.033 267.136 103.641Z" fill="#FFB341"/>
<path d="M267.136 137.061C267.136 138.668 267.641 139.971 268.264 139.971C268.887 139.971 269.392 138.668 269.392 137.061C269.392 135.453 268.887 134.15 268.264 134.15C267.641 134.15 267.136 135.453 267.136 137.061Z" fill="#FFB341"/>
<path d="M268.264 173.389C267.644 173.389 267.136 172.079 267.136 170.479C267.136 168.878 267.644 167.568 268.264 167.568C268.885 167.568 269.392 168.878 269.392 170.479C269.383 172.104 268.885 173.389 268.264 173.389Z" fill="#FFB341"/>
<path d="M267.136 203.922C267.136 205.529 267.641 206.832 268.264 206.832C268.887 206.832 269.392 205.529 269.392 203.922C269.392 202.315 268.887 201.012 268.264 201.012C267.641 201.012 267.136 202.315 267.136 203.922Z" fill="#FFB341"/>
<path d="M267.136 237.34C267.136 238.948 267.641 240.25 268.264 240.25C268.887 240.25 269.392 238.948 269.392 237.34C269.392 235.733 268.887 234.43 268.264 234.43C267.641 234.43 267.136 235.733 267.136 237.34Z" fill="#FFB341"/>
<path d="M268.264 273.67C267.644 273.67 267.136 272.361 267.136 270.76C267.136 269.159 267.644 267.85 268.264 267.85C268.885 267.85 269.392 269.159 269.392 270.76C269.383 272.361 268.885 273.67 268.264 273.67Z" fill="#FFB341"/>
<path d="M267.136 304.179C267.136 305.786 267.641 307.089 268.264 307.089C268.887 307.089 269.392 305.786 269.392 304.179C269.392 302.571 268.887 301.268 268.264 301.268C267.641 301.268 267.136 302.571 267.136 304.179Z" fill="#FFB341"/>
<path d="M267.136 337.598C267.136 339.205 267.641 340.508 268.264 340.508C268.887 340.508 269.392 339.205 269.392 337.598C269.392 335.991 268.887 334.688 268.264 334.688C267.641 334.688 267.136 335.991 267.136 337.598Z" fill="#FFB341"/>
<path d="M267.136 371.016C267.136 372.624 267.641 373.927 268.264 373.927C268.887 373.927 269.392 372.624 269.392 371.016C269.392 369.409 268.887 368.106 268.264 368.106C267.641 368.106 267.136 369.409 267.136 371.016Z" fill="#FFB341"/>
<path d="M254.452 3.3846C254.452 4.99185 254.957 6.29468 255.58 6.29468C256.203 6.29468 256.708 4.99185 256.708 3.3846C256.708 1.77734 256.203 0.474365 255.58 0.474365C254.957 0.474365 254.452 1.77734 254.452 3.3846Z" fill="#FFB341"/>
<path d="M254.451 36.8031C254.451 38.4104 254.957 39.7133 255.58 39.7133C256.203 39.7133 256.708 38.4104 256.708 36.8031C256.708 35.1958 256.203 33.8928 255.58 33.8928C254.957 33.8928 254.451 35.1958 254.451 36.8031Z" fill="#FFB341"/>
<path d="M254.451 70.2225C254.451 71.8298 254.957 73.1328 255.58 73.1328C256.203 73.1328 256.708 71.8298 256.708 70.2225C256.708 68.6152 256.203 67.3123 255.58 67.3123C254.957 67.3123 254.451 68.6152 254.451 70.2225Z" fill="#FFB341"/>
<path d="M254.451 103.641C254.451 105.248 254.957 106.551 255.58 106.551C256.203 106.551 256.708 105.248 256.708 103.641C256.708 102.033 256.203 100.73 255.58 100.73C254.957 100.73 254.451 102.033 254.451 103.641Z" fill="#FFB341"/>
<path d="M254.451 137.061C254.451 138.668 254.957 139.971 255.58 139.971C256.203 139.971 256.708 138.668 256.708 137.061C256.708 135.453 256.203 134.15 255.58 134.15C254.957 134.15 254.451 135.453 254.451 137.061Z" fill="#FFB341"/>
<path d="M255.58 173.389C254.959 173.389 254.451 172.079 254.451 170.479C254.451 168.878 254.959 167.568 255.58 167.568C256.2 167.568 256.708 168.878 256.708 170.479C256.708 172.104 256.21 173.389 255.58 173.389Z" fill="#FFB341"/>
<path d="M254.451 203.922C254.451 205.529 254.957 206.832 255.58 206.832C256.203 206.832 256.708 205.529 256.708 203.922C256.708 202.315 256.203 201.012 255.58 201.012C254.957 201.012 254.451 202.315 254.451 203.922Z" fill="#FFB341"/>
<path d="M254.451 237.34C254.451 238.948 254.957 240.25 255.58 240.25C256.203 240.25 256.708 238.948 256.708 237.34C256.708 235.733 256.203 234.43 255.58 234.43C254.957 234.43 254.451 235.733 254.451 237.34Z" fill="#FFB341"/>
<path d="M255.58 273.67C254.959 273.67 254.451 272.361 254.451 270.76C254.451 269.159 254.959 267.85 255.58 267.85C256.2 267.85 256.708 269.159 256.708 270.76C256.708 272.361 256.21 273.67 255.58 273.67Z" fill="#FFB341"/>
<path d="M254.451 304.179C254.451 305.786 254.957 307.089 255.58 307.089C256.203 307.089 256.708 305.786 256.708 304.179C256.708 302.571 256.203 301.268 255.58 301.268C254.957 301.268 254.451 302.571 254.451 304.179Z" fill="#FFB341"/>
<path d="M254.451 337.598C254.451 339.205 254.957 340.508 255.58 340.508C256.203 340.508 256.708 339.205 256.708 337.598C256.708 335.991 256.203 334.688 255.58 334.688C254.957 334.688 254.451 335.991 254.451 337.598Z" fill="#FFB341"/>
<path d="M254.451 371.016C254.451 372.624 254.957 373.927 255.58 373.927C256.203 373.927 256.708 372.624 256.708 371.016C256.708 369.409 256.203 368.106 255.58 368.106C254.957 368.106 254.451 369.409 254.451 371.016Z" fill="#FFB341"/>
<path d="M241.776 3.3846C241.776 4.99185 242.282 6.29468 242.905 6.29468C243.528 6.29468 244.033 4.99185 244.033 3.3846C244.033 1.77734 243.528 0.474365 242.905 0.474365C242.282 0.474365 241.776 1.77734 241.776 3.3846Z" fill="#FFB341"/>
<path d="M241.776 36.8031C241.776 38.4104 242.282 39.7133 242.905 39.7133C243.528 39.7133 244.033 38.4104 244.033 36.8031C244.033 35.1958 243.528 33.8928 242.905 33.8928C242.282 33.8928 241.776 35.1958 241.776 36.8031Z" fill="#FFB341"/>
<path d="M241.776 70.2225C241.776 71.8298 242.282 73.1328 242.905 73.1328C243.528 73.1328 244.033 71.8298 244.033 70.2225C244.033 68.6152 243.528 67.3123 242.905 67.3123C242.282 67.3123 241.776 68.6152 241.776 70.2225Z" fill="#FFB341"/>
<path d="M241.776 103.641C241.776 105.248 242.282 106.551 242.905 106.551C243.528 106.551 244.033 105.248 244.033 103.641C244.033 102.033 243.528 100.73 242.905 100.73C242.282 100.73 241.776 102.033 241.776 103.641Z" fill="#FFB341"/>
<path d="M241.776 137.061C241.776 138.668 242.282 139.971 242.905 139.971C243.528 139.971 244.033 138.668 244.033 137.061C244.033 135.453 243.528 134.15 242.905 134.15C242.282 134.15 241.776 135.453 241.776 137.061Z" fill="#FFB341"/>
<path d="M242.905 173.389C242.284 173.389 241.776 172.079 241.776 170.479C241.776 168.878 242.284 167.568 242.905 167.568C243.525 167.568 244.033 168.878 244.033 170.479C244.033 172.104 243.525 173.389 242.905 173.389Z" fill="#FFB341"/>
<path d="M241.776 203.922C241.776 205.529 242.282 206.832 242.905 206.832C243.528 206.832 244.033 205.529 244.033 203.922C244.033 202.315 243.528 201.012 242.905 201.012C242.282 201.012 241.776 202.315 241.776 203.922Z" fill="#FFB341"/>
<path d="M241.776 237.34C241.776 238.948 242.282 240.25 242.905 240.25C243.528 240.25 244.033 238.948 244.033 237.34C244.033 235.733 243.528 234.43 242.905 234.43C242.282 234.43 241.776 235.733 241.776 237.34Z" fill="#FFB341"/>
<path d="M242.905 273.67C242.284 273.67 241.776 272.361 241.776 270.76C241.776 269.159 242.284 267.85 242.905 267.85C243.525 267.85 244.033 269.159 244.033 270.76C244.033 272.361 243.525 273.67 242.905 273.67Z" fill="#FFB341"/>
<path d="M241.776 304.179C241.776 305.786 242.282 307.089 242.905 307.089C243.528 307.089 244.033 305.786 244.033 304.179C244.033 302.571 243.528 301.268 242.905 301.268C242.282 301.268 241.776 302.571 241.776 304.179Z" fill="#FFB341"/>
<path d="M241.776 337.598C241.776 339.205 242.282 340.508 242.905 340.508C243.528 340.508 244.033 339.205 244.033 337.598C244.033 335.991 243.528 334.688 242.905 334.688C242.282 334.688 241.776 335.991 241.776 337.598Z" fill="#FFB341"/>
<path d="M241.776 371.016C241.776 372.624 242.282 373.927 242.905 373.927C243.528 373.927 244.033 372.624 244.033 371.016C244.033 369.409 243.528 368.106 242.905 368.106C242.282 368.106 241.776 369.409 241.776 371.016Z" fill="#FFB341"/>
<path d="M229.102 3.3846C229.102 4.99185 229.607 6.29468 230.23 6.29468C230.853 6.29468 231.358 4.99185 231.358 3.3846C231.358 1.77734 230.853 0.474365 230.23 0.474365C229.607 0.474365 229.102 1.77734 229.102 3.3846Z" fill="#FFB341"/>
<path d="M229.102 36.8031C229.102 38.4104 229.607 39.7133 230.23 39.7133C230.853 39.7133 231.358 38.4104 231.358 36.8031C231.358 35.1958 230.853 33.8928 230.23 33.8928C229.607 33.8928 229.102 35.1958 229.102 36.8031Z" fill="#FFB341"/>
<path d="M229.102 70.2225C229.102 71.8298 229.607 73.1328 230.23 73.1328C230.853 73.1328 231.358 71.8298 231.358 70.2225C231.358 68.6152 230.853 67.3123 230.23 67.3123C229.607 67.3123 229.102 68.6152 229.102 70.2225Z" fill="#FFB341"/>
<path d="M229.102 103.641C229.102 105.248 229.607 106.551 230.23 106.551C230.853 106.551 231.358 105.248 231.358 103.641C231.358 102.033 230.853 100.73 230.23 100.73C229.607 100.73 229.102 102.033 229.102 103.641Z" fill="#FFB341"/>
<path d="M229.102 137.061C229.102 138.668 229.607 139.971 230.23 139.971C230.853 139.971 231.358 138.668 231.358 137.061C231.358 135.453 230.853 134.15 230.23 134.15C229.607 134.15 229.102 135.453 229.102 137.061Z" fill="#FFB341"/>
<path d="M230.23 173.389C229.609 173.389 229.102 172.079 229.102 170.479C229.102 168.878 229.609 167.568 230.23 167.568C230.851 167.568 231.358 168.878 231.358 170.479C231.358 172.104 230.851 173.389 230.23 173.389Z" fill="#FFB341"/>
<path d="M229.102 203.922C229.102 205.529 229.607 206.832 230.23 206.832C230.853 206.832 231.358 205.529 231.358 203.922C231.358 202.315 230.853 201.012 230.23 201.012C229.607 201.012 229.102 202.315 229.102 203.922Z" fill="#FFB341"/>
<path d="M229.102 237.34C229.102 238.948 229.607 240.25 230.23 240.25C230.853 240.25 231.358 238.948 231.358 237.34C231.358 235.733 230.853 234.43 230.23 234.43C229.607 234.43 229.102 235.733 229.102 237.34Z" fill="#FFB341"/>
<path d="M230.23 273.67C229.609 273.67 229.102 272.361 229.102 270.76C229.102 269.159 229.609 267.85 230.23 267.85C230.851 267.85 231.358 269.159 231.358 270.76C231.358 272.361 230.851 273.67 230.23 273.67Z" fill="#FFB341"/>
<path d="M229.102 304.179C229.102 305.786 229.607 307.089 230.23 307.089C230.853 307.089 231.358 305.786 231.358 304.179C231.358 302.571 230.853 301.268 230.23 301.268C229.607 301.268 229.102 302.571 229.102 304.179Z" fill="#FFB341"/>
<path d="M229.102 337.598C229.102 339.205 229.607 340.508 230.23 340.508C230.853 340.508 231.358 339.205 231.358 337.598C231.358 335.991 230.853 334.688 230.23 334.688C229.607 334.688 229.102 335.991 229.102 337.598Z" fill="#FFB341"/>
<path d="M229.102 371.016C229.102 372.624 229.607 373.927 230.23 373.927C230.853 373.927 231.358 372.624 231.358 371.016C231.358 369.409 230.853 368.106 230.23 368.106C229.607 368.106 229.102 369.409 229.102 371.016Z" fill="#FFB341"/>
<path d="M216.427 3.3846C216.427 4.99185 216.932 6.29468 217.555 6.29468C218.178 6.29468 218.683 4.99185 218.683 3.3846C218.683 1.77734 218.178 0.474365 217.555 0.474365C216.932 0.474365 216.427 1.77734 216.427 3.3846Z" fill="#FFB341"/>
<path d="M216.427 36.8031C216.427 38.4104 216.932 39.7133 217.555 39.7133C218.178 39.7133 218.683 38.4104 218.683 36.8031C218.683 35.1958 218.178 33.8928 217.555 33.8928C216.932 33.8928 216.427 35.1958 216.427 36.8031Z" fill="#FFB341"/>
<path d="M216.427 70.2227C216.427 71.83 216.932 73.133 217.555 73.133C218.178 73.133 218.683 71.83 218.683 70.2227C218.683 68.6155 218.178 67.3125 217.555 67.3125C216.932 67.3125 216.427 68.6155 216.427 70.2227Z" fill="#FFB341"/>
<path d="M216.427 103.641C216.427 105.248 216.932 106.551 217.555 106.551C218.178 106.551 218.683 105.248 218.683 103.641C218.683 102.033 218.178 100.73 217.555 100.73C216.932 100.73 216.427 102.033 216.427 103.641Z" fill="#FFB341"/>
<path d="M216.427 137.061C216.427 138.668 216.932 139.971 217.555 139.971C218.178 139.971 218.683 138.668 218.683 137.061C218.683 135.453 218.178 134.15 217.555 134.15C216.932 134.15 216.427 135.453 216.427 137.061Z" fill="#FFB341"/>
<path d="M217.555 173.389C216.934 173.389 216.427 172.079 216.427 170.479C216.427 168.878 216.934 167.568 217.555 167.568C218.176 167.568 218.683 168.878 218.683 170.479C218.683 172.104 218.176 173.389 217.555 173.389Z" fill="#FFB341"/>
<path d="M216.427 203.922C216.427 205.529 216.932 206.832 217.555 206.832C218.178 206.832 218.683 205.529 218.683 203.922C218.683 202.315 218.178 201.012 217.555 201.012C216.932 201.012 216.427 202.315 216.427 203.922Z" fill="#FFB341"/>
<path d="M216.427 237.34C216.427 238.948 216.932 240.25 217.555 240.25C218.178 240.25 218.683 238.948 218.683 237.34C218.683 235.733 218.178 234.43 217.555 234.43C216.932 234.43 216.427 235.733 216.427 237.34Z" fill="#FFB341"/>
<path d="M217.555 273.67C216.934 273.67 216.427 272.361 216.427 270.76C216.427 269.159 216.934 267.85 217.555 267.85C218.176 267.85 218.683 269.159 218.683 270.76C218.683 272.361 218.176 273.67 217.555 273.67Z" fill="#FFB341"/>
<path d="M216.427 304.179C216.427 305.786 216.932 307.089 217.555 307.089C218.178 307.089 218.683 305.786 218.683 304.179C218.683 302.571 218.178 301.268 217.555 301.268C216.932 301.268 216.427 302.571 216.427 304.179Z" fill="#FFB341"/>
<path d="M216.427 337.598C216.427 339.205 216.932 340.508 217.555 340.508C218.178 340.508 218.683 339.205 218.683 337.598C218.683 335.991 218.178 334.688 217.555 334.688C216.932 334.688 216.427 335.991 216.427 337.598Z" fill="#FFB341"/>
<path d="M216.427 371.016C216.427 372.624 216.932 373.927 217.555 373.927C218.178 373.927 218.683 372.624 218.683 371.016C218.683 369.409 218.178 368.106 217.555 368.106C216.932 368.106 216.427 369.409 216.427 371.016Z" fill="#FFB341"/>
<path d="M203.752 3.3846C203.752 4.99185 204.257 6.29468 204.88 6.29468C205.503 6.29468 206.009 4.99185 206.009 3.3846C206.009 1.77734 205.503 0.474365 204.88 0.474365C204.257 0.474365 203.752 1.77734 203.752 3.3846Z" fill="#FFB341"/>
<path d="M203.752 36.8031C203.752 38.4104 204.257 39.7133 204.88 39.7133C205.503 39.7133 206.009 38.4104 206.009 36.8031C206.009 35.1958 205.503 33.8928 204.88 33.8928C204.257 33.8928 203.752 35.1958 203.752 36.8031Z" fill="#FFB341"/>
<path d="M203.752 70.2227C203.752 71.83 204.257 73.133 204.88 73.133C205.503 73.133 206.009 71.83 206.009 70.2227C206.009 68.6155 205.503 67.3125 204.88 67.3125C204.257 67.3125 203.752 68.6155 203.752 70.2227Z" fill="#FFB341"/>
<path d="M203.752 103.641C203.752 105.248 204.257 106.551 204.88 106.551C205.503 106.551 206.009 105.248 206.009 103.641C206.009 102.033 205.503 100.73 204.88 100.73C204.257 100.73 203.752 102.033 203.752 103.641Z" fill="#FFB341"/>
<path d="M203.752 137.061C203.752 138.668 204.257 139.971 204.88 139.971C205.503 139.971 206.009 138.668 206.009 137.061C206.009 135.453 205.503 134.15 204.88 134.15C204.257 134.15 203.752 135.453 203.752 137.061Z" fill="#FFB341"/>
<path d="M204.88 173.389C204.26 173.389 203.752 172.079 203.752 170.479C203.752 168.878 204.26 167.568 204.88 167.568C205.501 167.568 206.009 168.878 206.009 170.479C205.999 172.104 205.501 173.389 204.88 173.389Z" fill="#FFB341"/>
<path d="M203.752 203.922C203.752 205.529 204.257 206.832 204.88 206.832C205.503 206.832 206.009 205.529 206.009 203.922C206.009 202.315 205.503 201.012 204.88 201.012C204.257 201.012 203.752 202.315 203.752 203.922Z" fill="#FFB341"/>
<path d="M203.752 237.34C203.752 238.948 204.257 240.25 204.88 240.25C205.503 240.25 206.009 238.948 206.009 237.34C206.009 235.733 205.503 234.43 204.88 234.43C204.257 234.43 203.752 235.733 203.752 237.34Z" fill="#FFB341"/>
<path d="M204.88 273.67C204.26 273.67 203.752 272.361 203.752 270.76C203.752 269.159 204.26 267.85 204.88 267.85C205.501 267.85 206.009 269.159 206.009 270.76C205.999 272.361 205.501 273.67 204.88 273.67Z" fill="#FFB341"/>
<path d="M203.752 304.179C203.752 305.786 204.257 307.089 204.88 307.089C205.503 307.089 206.009 305.786 206.009 304.179C206.009 302.571 205.503 301.268 204.88 301.268C204.257 301.268 203.752 302.571 203.752 304.179Z" fill="#FFB341"/>
<path d="M203.752 337.598C203.752 339.205 204.257 340.508 204.88 340.508C205.503 340.508 206.009 339.205 206.009 337.598C206.009 335.991 205.503 334.688 204.88 334.688C204.257 334.688 203.752 335.991 203.752 337.598Z" fill="#FFB341"/>
<path d="M203.752 371.016C203.752 372.624 204.257 373.927 204.88 373.927C205.503 373.927 206.009 372.624 206.009 371.016C206.009 369.409 205.503 368.106 204.88 368.106C204.257 368.106 203.752 369.409 203.752 371.016Z" fill="#FFB341"/>
<path d="M191.068 3.3846C191.068 4.99185 191.573 6.29468 192.196 6.29468C192.819 6.29468 193.324 4.99185 193.324 3.3846C193.324 1.77734 192.819 0.474365 192.196 0.474365C191.573 0.474365 191.068 1.77734 191.068 3.3846Z" fill="#FFB341"/>
<path d="M191.068 36.8031C191.068 38.4104 191.573 39.7133 192.196 39.7133C192.819 39.7133 193.324 38.4104 193.324 36.8031C193.324 35.1958 192.819 33.8928 192.196 33.8928C191.573 33.8928 191.068 35.1958 191.068 36.8031Z" fill="#FFB341"/>
<path d="M191.068 70.2225C191.068 71.8298 191.573 73.1328 192.196 73.1328C192.819 73.1328 193.324 71.8298 193.324 70.2225C193.324 68.6152 192.819 67.3123 192.196 67.3123C191.573 67.3123 191.068 68.6152 191.068 70.2225Z" fill="#FFB341"/>
<path d="M191.068 103.641C191.068 105.248 191.573 106.551 192.196 106.551C192.819 106.551 193.324 105.248 193.324 103.641C193.324 102.033 192.819 100.73 192.196 100.73C191.573 100.73 191.068 102.033 191.068 103.641Z" fill="#FFB341"/>
<path d="M191.068 137.061C191.068 138.668 191.573 139.971 192.196 139.971C192.819 139.971 193.324 138.668 193.324 137.061C193.324 135.453 192.819 134.15 192.196 134.15C191.573 134.15 191.068 135.453 191.068 137.061Z" fill="#FFB341"/>
<path d="M192.196 173.389C191.575 173.389 191.068 172.079 191.068 170.479C191.068 168.878 191.575 167.568 192.196 167.568C192.816 167.568 193.324 168.878 193.324 170.479C193.324 172.104 192.826 173.389 192.196 173.389Z" fill="#FFB341"/>
<path d="M191.068 203.922C191.068 205.529 191.573 206.832 192.196 206.832C192.819 206.832 193.324 205.529 193.324 203.922C193.324 202.315 192.819 201.012 192.196 201.012C191.573 201.012 191.068 202.315 191.068 203.922Z" fill="#FFB341"/>
<path d="M191.068 237.34C191.068 238.948 191.573 240.25 192.196 240.25C192.819 240.25 193.324 238.948 193.324 237.34C193.324 235.733 192.819 234.43 192.196 234.43C191.573 234.43 191.068 235.733 191.068 237.34Z" fill="#FFB341"/>
<path d="M192.196 273.67C191.575 273.67 191.068 272.361 191.068 270.76C191.068 269.159 191.575 267.85 192.196 267.85C192.816 267.85 193.324 269.159 193.324 270.76C193.324 272.361 192.826 273.67 192.196 273.67Z" fill="#FFB341"/>
<path d="M191.068 304.179C191.068 305.786 191.573 307.089 192.196 307.089C192.819 307.089 193.324 305.786 193.324 304.179C193.324 302.571 192.819 301.268 192.196 301.268C191.573 301.268 191.068 302.571 191.068 304.179Z" fill="#FFB341"/>
<path d="M191.068 337.598C191.068 339.205 191.573 340.508 192.196 340.508C192.819 340.508 193.324 339.205 193.324 337.598C193.324 335.991 192.819 334.688 192.196 334.688C191.573 334.688 191.068 335.991 191.068 337.598Z" fill="#FFB341"/>
<path d="M191.068 371.016C191.068 372.624 191.573 373.927 192.196 373.927C192.819 373.927 193.324 372.624 193.324 371.016C193.324 369.409 192.819 368.106 192.196 368.106C191.573 368.106 191.068 369.409 191.068 371.016Z" fill="#FFB341"/>
<path d="M178.393 3.3846C178.393 4.99185 178.898 6.29468 179.521 6.29468C180.144 6.29468 180.649 4.99185 180.649 3.3846C180.649 1.77734 180.144 0.474365 179.521 0.474365C178.898 0.474365 178.393 1.77734 178.393 3.3846Z" fill="#FFB341"/>
<path d="M178.393 36.8031C178.393 38.4104 178.898 39.7133 179.521 39.7133C180.144 39.7133 180.649 38.4104 180.649 36.8031C180.649 35.1958 180.144 33.8928 179.521 33.8928C178.898 33.8928 178.393 35.1958 178.393 36.8031Z" fill="#FFB341"/>
<path d="M178.393 70.2227C178.393 71.83 178.898 73.133 179.521 73.133C180.144 73.133 180.649 71.83 180.649 70.2227C180.649 68.6155 180.144 67.3125 179.521 67.3125C178.898 67.3125 178.393 68.6155 178.393 70.2227Z" fill="#FFB341"/>
<path d="M178.393 103.641C178.393 105.248 178.898 106.551 179.521 106.551C180.144 106.551 180.649 105.248 180.649 103.641C180.649 102.033 180.144 100.73 179.521 100.73C178.898 100.73 178.393 102.033 178.393 103.641Z" fill="#FFB341"/>
<path d="M178.393 137.061C178.393 138.668 178.898 139.971 179.521 139.971C180.144 139.971 180.649 138.668 180.649 137.061C180.649 135.453 180.144 134.15 179.521 134.15C178.898 134.15 178.393 135.453 178.393 137.061Z" fill="#FFB341"/>
<path d="M179.521 173.389C178.901 173.389 178.393 172.079 178.393 170.479C178.393 168.878 178.901 167.568 179.521 167.568C180.142 167.568 180.649 168.878 180.649 170.479C180.649 172.104 180.142 173.389 179.521 173.389Z" fill="#FFB341"/>
<path d="M178.393 203.922C178.393 205.529 178.898 206.832 179.521 206.832C180.144 206.832 180.649 205.529 180.649 203.922C180.649 202.315 180.144 201.012 179.521 201.012C178.898 201.012 178.393 202.315 178.393 203.922Z" fill="#FFB341"/>
<path d="M178.393 237.34C178.393 238.948 178.898 240.25 179.521 240.25C180.144 240.25 180.649 238.948 180.649 237.34C180.649 235.733 180.144 234.43 179.521 234.43C178.898 234.43 178.393 235.733 178.393 237.34Z" fill="#FFB341"/>
<path d="M179.521 273.67C178.9 273.67 178.393 272.361 178.393 270.76C178.393 269.159 178.9 267.85 179.521 267.85C180.142 267.85 180.649 269.159 180.649 270.76C180.649 272.361 180.142 273.67 179.521 273.67Z" fill="#FFB341"/>
<path d="M178.393 304.179C178.393 305.786 178.898 307.089 179.521 307.089C180.144 307.089 180.649 305.786 180.649 304.179C180.649 302.571 180.144 301.268 179.521 301.268C178.898 301.268 178.393 302.571 178.393 304.179Z" fill="#FFB341"/>
<path d="M178.393 337.598C178.393 339.205 178.898 340.508 179.521 340.508C180.144 340.508 180.649 339.205 180.649 337.598C180.649 335.991 180.144 334.688 179.521 334.688C178.898 334.688 178.393 335.991 178.393 337.598Z" fill="#FFB341"/>
<path d="M178.393 371.016C178.393 372.624 178.898 373.927 179.521 373.927C180.144 373.927 180.649 372.624 180.649 371.016C180.649 369.409 180.144 368.106 179.521 368.106C178.898 368.106 178.393 369.409 178.393 371.016Z" fill="#FFB341"/>
<path d="M165.718 3.3846C165.718 4.99185 166.223 6.29468 166.846 6.29468C167.469 6.29468 167.974 4.99185 167.974 3.3846C167.974 1.77734 167.469 0.474365 166.846 0.474365C166.223 0.474365 165.718 1.77734 165.718 3.3846Z" fill="#FFB341"/>
<path d="M165.718 36.8031C165.718 38.4104 166.223 39.7133 166.846 39.7133C167.469 39.7133 167.974 38.4104 167.974 36.8031C167.974 35.1958 167.469 33.8928 166.846 33.8928C166.223 33.8928 165.718 35.1958 165.718 36.8031Z" fill="#FFB341"/>
<path d="M165.718 70.2227C165.718 71.83 166.223 73.133 166.846 73.133C167.469 73.133 167.974 71.83 167.974 70.2227C167.974 68.6155 167.469 67.3125 166.846 67.3125C166.223 67.3125 165.718 68.6155 165.718 70.2227Z" fill="#FFB341"/>
<path d="M165.718 103.641C165.718 105.248 166.223 106.551 166.846 106.551C167.469 106.551 167.974 105.248 167.974 103.641C167.974 102.033 167.469 100.73 166.846 100.73C166.223 100.73 165.718 102.033 165.718 103.641Z" fill="#FFB341"/>
<path d="M165.718 137.061C165.718 138.668 166.223 139.971 166.846 139.971C167.469 139.971 167.974 138.668 167.974 137.061C167.974 135.453 167.469 134.15 166.846 134.15C166.223 134.15 165.718 135.453 165.718 137.061Z" fill="#FFB341"/>
<path d="M166.846 173.389C166.225 173.389 165.718 172.079 165.718 170.479C165.718 168.878 166.225 167.568 166.846 167.568C167.467 167.568 167.974 168.878 167.974 170.479C167.974 172.104 167.467 173.389 166.846 173.389Z" fill="#FFB341"/>
<path d="M165.718 203.922C165.718 205.529 166.223 206.832 166.846 206.832C167.469 206.832 167.974 205.529 167.974 203.922C167.974 202.315 167.469 201.012 166.846 201.012C166.223 201.012 165.718 202.315 165.718 203.922Z" fill="#FFB341"/>
<path d="M165.718 237.34C165.718 238.948 166.223 240.25 166.846 240.25C167.469 240.25 167.974 238.948 167.974 237.34C167.974 235.733 167.469 234.43 166.846 234.43C166.223 234.43 165.718 235.733 165.718 237.34Z" fill="#FFB341"/>
<path d="M166.846 273.67C166.225 273.67 165.718 272.361 165.718 270.76C165.718 269.159 166.225 267.85 166.846 267.85C167.467 267.85 167.974 269.159 167.974 270.76C167.974 272.361 167.467 273.67 166.846 273.67Z" fill="#FFB341"/>
<path d="M165.718 304.179C165.718 305.786 166.223 307.089 166.846 307.089C167.469 307.089 167.974 305.786 167.974 304.179C167.974 302.571 167.469 301.268 166.846 301.268C166.223 301.268 165.718 302.571 165.718 304.179Z" fill="#FFB341"/>
<path d="M165.718 337.598C165.718 339.205 166.223 340.508 166.846 340.508C167.469 340.508 167.974 339.205 167.974 337.598C167.974 335.991 167.469 334.688 166.846 334.688C166.223 334.688 165.718 335.991 165.718 337.598Z" fill="#FFB341"/>
<path d="M165.718 371.016C165.718 372.624 166.223 373.927 166.846 373.927C167.469 373.927 167.974 372.624 167.974 371.016C167.974 369.409 167.469 368.106 166.846 368.106C166.223 368.106 165.718 369.409 165.718 371.016Z" fill="#FFB341"/>
<path d="M153.043 3.3846C153.043 4.99185 153.548 6.29468 154.171 6.29468C154.794 6.29468 155.3 4.99185 155.3 3.3846C155.3 1.77734 154.794 0.474365 154.171 0.474365C153.548 0.474365 153.043 1.77734 153.043 3.3846Z" fill="#FFB341"/>
<path d="M153.043 36.8031C153.043 38.4104 153.548 39.7133 154.171 39.7133C154.794 39.7133 155.299 38.4104 155.299 36.8031C155.299 35.1958 154.794 33.8928 154.171 33.8928C153.548 33.8928 153.043 35.1958 153.043 36.8031Z" fill="#FFB341"/>
<path d="M153.043 70.2227C153.043 71.83 153.548 73.133 154.171 73.133C154.794 73.133 155.3 71.83 155.3 70.2227C155.3 68.6155 154.794 67.3125 154.171 67.3125C153.548 67.3125 153.043 68.6155 153.043 70.2227Z" fill="#FFB341"/>
<path d="M153.043 103.641C153.043 105.248 153.548 106.551 154.171 106.551C154.794 106.551 155.3 105.248 155.3 103.641C155.3 102.033 154.794 100.73 154.171 100.73C153.548 100.73 153.043 102.033 153.043 103.641Z" fill="#FFB341"/>
<path d="M153.043 137.061C153.043 138.668 153.548 139.971 154.171 139.971C154.794 139.971 155.3 138.668 155.3 137.061C155.3 135.453 154.794 134.15 154.171 134.15C153.548 134.15 153.043 135.453 153.043 137.061Z" fill="#FFB341"/>
<path d="M154.171 173.389C153.551 173.389 153.043 172.079 153.043 170.479C153.043 168.878 153.551 167.568 154.171 167.568C154.792 167.568 155.3 168.878 155.3 170.479C155.3 172.104 154.792 173.389 154.171 173.389Z" fill="#FFB341"/>
<path d="M153.043 203.922C153.043 205.529 153.548 206.832 154.171 206.832C154.794 206.832 155.299 205.529 155.299 203.922C155.299 202.315 154.794 201.012 154.171 201.012C153.548 201.012 153.043 202.315 153.043 203.922Z" fill="#FFB341"/>
<path d="M153.043 237.34C153.043 238.948 153.548 240.25 154.171 240.25C154.794 240.25 155.3 238.948 155.3 237.34C155.3 235.733 154.794 234.43 154.171 234.43C153.548 234.43 153.043 235.733 153.043 237.34Z" fill="#FFB341"/>
<path d="M154.171 273.67C153.551 273.67 153.043 272.361 153.043 270.76C153.043 269.159 153.551 267.85 154.171 267.85C154.792 267.85 155.3 269.159 155.3 270.76C155.3 272.361 154.792 273.67 154.171 273.67Z" fill="#FFB341"/>
<path d="M153.043 304.179C153.043 305.786 153.548 307.089 154.171 307.089C154.794 307.089 155.3 305.786 155.3 304.179C155.3 302.571 154.794 301.268 154.171 301.268C153.548 301.268 153.043 302.571 153.043 304.179Z" fill="#FFB341"/>
<path d="M153.043 337.598C153.043 339.205 153.548 340.508 154.171 340.508C154.794 340.508 155.3 339.205 155.3 337.598C155.3 335.991 154.794 334.688 154.171 334.688C153.548 334.688 153.043 335.991 153.043 337.598Z" fill="#FFB341"/>
<path d="M153.043 371.016C153.043 372.624 153.548 373.927 154.171 373.927C154.794 373.927 155.299 372.624 155.299 371.016C155.299 369.409 154.794 368.106 154.171 368.106C153.548 368.106 153.043 369.409 153.043 371.016Z" fill="#FFB341"/>
<path d="M140.368 3.3846C140.368 4.99185 140.873 6.29468 141.496 6.29468C142.119 6.29468 142.625 4.99185 142.625 3.3846C142.625 1.77734 142.119 0.474365 141.496 0.474365C140.873 0.474365 140.368 1.77734 140.368 3.3846Z" fill="#FFB341"/>
<path d="M140.368 36.8031C140.368 38.4104 140.873 39.7133 141.496 39.7133C142.119 39.7133 142.625 38.4104 142.625 36.8031C142.625 35.1958 142.119 33.8928 141.496 33.8928C140.873 33.8928 140.368 35.1958 140.368 36.8031Z" fill="#FFB341"/>
<path d="M140.368 70.2227C140.368 71.83 140.873 73.133 141.496 73.133C142.119 73.133 142.625 71.83 142.625 70.2227C142.625 68.6155 142.119 67.3125 141.496 67.3125C140.873 67.3125 140.368 68.6155 140.368 70.2227Z" fill="#FFB341"/>
<path d="M140.368 103.641C140.368 105.248 140.873 106.551 141.496 106.551C142.119 106.551 142.625 105.248 142.625 103.641C142.625 102.033 142.119 100.73 141.496 100.73C140.873 100.73 140.368 102.033 140.368 103.641Z" fill="#FFB341"/>
<path d="M140.368 137.061C140.368 138.668 140.873 139.971 141.496 139.971C142.119 139.971 142.625 138.668 142.625 137.061C142.625 135.453 142.119 134.15 141.496 134.15C140.873 134.15 140.368 135.453 140.368 137.061Z" fill="#FFB341"/>
<path d="M141.496 173.389C140.876 173.389 140.368 172.079 140.368 170.479C140.368 168.878 140.876 167.568 141.496 167.568C142.117 167.568 142.625 168.878 142.625 170.479C142.615 172.104 142.117 173.389 141.496 173.389Z" fill="#FFB341"/>
<path d="M140.368 203.922C140.368 205.529 140.873 206.832 141.496 206.832C142.119 206.832 142.625 205.529 142.625 203.922C142.625 202.315 142.119 201.012 141.496 201.012C140.873 201.012 140.368 202.315 140.368 203.922Z" fill="#FFB341"/>
<path d="M140.368 237.34C140.368 238.948 140.873 240.25 141.496 240.25C142.119 240.25 142.625 238.948 142.625 237.34C142.625 235.733 142.119 234.43 141.496 234.43C140.873 234.43 140.368 235.733 140.368 237.34Z" fill="#FFB341"/>
<path d="M141.496 273.67C140.876 273.67 140.368 272.361 140.368 270.76C140.368 269.159 140.876 267.85 141.496 267.85C142.117 267.85 142.625 269.159 142.625 270.76C142.615 272.361 142.117 273.67 141.496 273.67Z" fill="#FFB341"/>
<path d="M140.368 304.179C140.368 305.786 140.873 307.089 141.496 307.089C142.119 307.089 142.625 305.786 142.625 304.179C142.625 302.571 142.119 301.268 141.496 301.268C140.873 301.268 140.368 302.571 140.368 304.179Z" fill="#FFB341"/>
<path d="M140.368 337.598C140.368 339.205 140.873 340.508 141.496 340.508C142.119 340.508 142.625 339.205 142.625 337.598C142.625 335.991 142.119 334.688 141.496 334.688C140.873 334.688 140.368 335.991 140.368 337.598Z" fill="#FFB341"/>
<path d="M140.368 371.016C140.368 372.624 140.873 373.927 141.496 373.927C142.119 373.927 142.625 372.624 142.625 371.016C142.625 369.409 142.119 368.106 141.496 368.106C140.873 368.106 140.368 369.409 140.368 371.016Z" fill="#FFB341"/>
<path d="M127.684 3.3846C127.684 4.99185 128.189 6.29468 128.812 6.29468C129.435 6.29468 129.94 4.99185 129.94 3.3846C129.94 1.77734 129.435 0.474365 128.812 0.474365C128.189 0.474365 127.684 1.77734 127.684 3.3846Z" fill="#FFB341"/>
<path d="M127.684 36.8031C127.684 38.4104 128.189 39.7133 128.812 39.7133C129.435 39.7133 129.94 38.4104 129.94 36.8031C129.94 35.1958 129.435 33.8928 128.812 33.8928C128.189 33.8928 127.684 35.1958 127.684 36.8031Z" fill="#FFB341"/>
<path d="M127.684 70.2227C127.684 71.83 128.189 73.133 128.812 73.133C129.435 73.133 129.94 71.83 129.94 70.2227C129.94 68.6155 129.435 67.3125 128.812 67.3125C128.189 67.3125 127.684 68.6155 127.684 70.2227Z" fill="#FFB341"/>
<path d="M127.684 103.641C127.684 105.248 128.189 106.551 128.812 106.551C129.435 106.551 129.94 105.248 129.94 103.641C129.94 102.033 129.435 100.73 128.812 100.73C128.189 100.73 127.684 102.033 127.684 103.641Z" fill="#FFB341"/>
<path d="M127.684 137.061C127.684 138.668 128.189 139.971 128.812 139.971C129.435 139.971 129.94 138.668 129.94 137.061C129.94 135.453 129.435 134.15 128.812 134.15C128.189 134.15 127.684 135.453 127.684 137.061Z" fill="#FFB341"/>
<path d="M128.812 173.389C128.191 173.389 127.684 172.079 127.684 170.479C127.684 168.878 128.191 167.568 128.812 167.568C129.432 167.568 129.94 168.878 129.94 170.479C129.94 172.104 129.442 173.389 128.812 173.389Z" fill="#FFB341"/>
<path d="M127.684 203.922C127.684 205.529 128.189 206.832 128.812 206.832C129.435 206.832 129.94 205.529 129.94 203.922C129.94 202.315 129.435 201.012 128.812 201.012C128.189 201.012 127.684 202.315 127.684 203.922Z" fill="#FFB341"/>
<path d="M127.684 237.34C127.684 238.948 128.189 240.25 128.812 240.25C129.435 240.25 129.94 238.948 129.94 237.34C129.94 235.733 129.435 234.43 128.812 234.43C128.189 234.43 127.684 235.733 127.684 237.34Z" fill="#FFB341"/>
<path d="M128.812 273.67C128.191 273.67 127.684 272.361 127.684 270.76C127.684 269.159 128.191 267.85 128.812 267.85C129.432 267.85 129.94 269.159 129.94 270.76C129.94 272.361 129.442 273.67 128.812 273.67Z" fill="#FFB341"/>
<path d="M127.684 304.179C127.684 305.786 128.189 307.089 128.812 307.089C129.435 307.089 129.94 305.786 129.94 304.179C129.94 302.571 129.435 301.268 128.812 301.268C128.189 301.268 127.684 302.571 127.684 304.179Z" fill="#FFB341"/>
<path d="M127.684 337.598C127.684 339.205 128.189 340.508 128.812 340.508C129.435 340.508 129.94 339.205 129.94 337.598C129.94 335.991 129.435 334.688 128.812 334.688C128.189 334.688 127.684 335.991 127.684 337.598Z" fill="#FFB341"/>
<path d="M127.684 371.016C127.684 372.624 128.189 373.927 128.812 373.927C129.435 373.927 129.94 372.624 129.94 371.016C129.94 369.409 129.435 368.106 128.812 368.106C128.189 368.106 127.684 369.409 127.684 371.016Z" fill="#FFB341"/>
<path d="M115.009 3.3846C115.009 4.99185 115.514 6.29468 116.137 6.29468C116.76 6.29468 117.265 4.99185 117.265 3.3846C117.265 1.77734 116.76 0.474365 116.137 0.474365C115.514 0.474365 115.009 1.77734 115.009 3.3846Z" fill="#FFB341"/>
<path d="M115.009 36.8031C115.009 38.4104 115.514 39.7133 116.137 39.7133C116.76 39.7133 117.265 38.4104 117.265 36.8031C117.265 35.1958 116.76 33.8928 116.137 33.8928C115.514 33.8928 115.009 35.1958 115.009 36.8031Z" fill="#FFB341"/>
<path d="M115.009 70.2227C115.009 71.83 115.514 73.133 116.137 73.133C116.76 73.133 117.265 71.83 117.265 70.2227C117.265 68.6155 116.76 67.3125 116.137 67.3125C115.514 67.3125 115.009 68.6155 115.009 70.2227Z" fill="#FFB341"/>
<path d="M115.009 103.641C115.009 105.248 115.514 106.551 116.137 106.551C116.76 106.551 117.265 105.248 117.265 103.641C117.265 102.033 116.76 100.73 116.137 100.73C115.514 100.73 115.009 102.033 115.009 103.641Z" fill="#FFB341"/>
<path d="M115.009 137.061C115.009 138.668 115.514 139.971 116.137 139.971C116.76 139.971 117.265 138.668 117.265 137.061C117.265 135.453 116.76 134.15 116.137 134.15C115.514 134.15 115.009 135.453 115.009 137.061Z" fill="#FFB341"/>
<path d="M116.137 173.389C115.516 173.389 115.009 172.079 115.009 170.479C115.009 168.878 115.516 167.568 116.137 167.568C116.758 167.568 117.265 168.878 117.265 170.479C117.265 172.104 116.758 173.389 116.137 173.389Z" fill="#FFB341"/>
<path d="M115.009 203.922C115.009 205.529 115.514 206.832 116.137 206.832C116.76 206.832 117.265 205.529 117.265 203.922C117.265 202.315 116.76 201.012 116.137 201.012C115.514 201.012 115.009 202.315 115.009 203.922Z" fill="#FFB341"/>
<path d="M115.009 237.34C115.009 238.948 115.514 240.25 116.137 240.25C116.76 240.25 117.265 238.948 117.265 237.34C117.265 235.733 116.76 234.43 116.137 234.43C115.514 234.43 115.009 235.733 115.009 237.34Z" fill="#FFB341"/>
<path d="M116.137 273.67C115.516 273.67 115.009 272.361 115.009 270.76C115.009 269.159 115.516 267.85 116.137 267.85C116.758 267.85 117.265 269.159 117.265 270.76C117.265 272.361 116.758 273.67 116.137 273.67Z" fill="#FFB341"/>
<path d="M115.009 304.179C115.009 305.786 115.514 307.089 116.137 307.089C116.76 307.089 117.265 305.786 117.265 304.179C117.265 302.571 116.76 301.268 116.137 301.268C115.514 301.268 115.009 302.571 115.009 304.179Z" fill="#FFB341"/>
<path d="M115.009 337.598C115.009 339.205 115.514 340.508 116.137 340.508C116.76 340.508 117.265 339.205 117.265 337.598C117.265 335.991 116.76 334.688 116.137 334.688C115.514 334.688 115.009 335.991 115.009 337.598Z" fill="#FFB341"/>
<path d="M115.009 371.016C115.009 372.624 115.514 373.927 116.137 373.927C116.76 373.927 117.265 372.624 117.265 371.016C117.265 369.409 116.76 368.106 116.137 368.106C115.514 368.106 115.009 369.409 115.009 371.016Z" fill="#FFB341"/>
<path d="M102.334 3.3846C102.334 4.99185 102.839 6.29468 103.462 6.29468C104.085 6.29468 104.591 4.99185 104.591 3.3846C104.591 1.77734 104.085 0.474365 103.462 0.474365C102.839 0.474365 102.334 1.77734 102.334 3.3846Z" fill="#FFB341"/>
<path d="M102.334 36.8031C102.334 38.4104 102.839 39.7133 103.462 39.7133C104.085 39.7133 104.591 38.4104 104.591 36.8031C104.591 35.1958 104.085 33.8928 103.462 33.8928C102.839 33.8928 102.334 35.1958 102.334 36.8031Z" fill="#FFB341"/>
<path d="M102.334 70.2225C102.334 71.8298 102.839 73.1328 103.462 73.1328C104.085 73.1328 104.591 71.8298 104.591 70.2225C104.591 68.6152 104.085 67.3123 103.462 67.3123C102.839 67.3123 102.334 68.6152 102.334 70.2225Z" fill="#FFB341"/>
<path d="M102.334 103.641C102.334 105.248 102.839 106.551 103.462 106.551C104.085 106.551 104.591 105.248 104.591 103.641C104.591 102.033 104.085 100.73 103.462 100.73C102.839 100.73 102.334 102.033 102.334 103.641Z" fill="#FFB341"/>
<path d="M102.334 137.061C102.334 138.668 102.839 139.971 103.462 139.971C104.085 139.971 104.591 138.668 104.591 137.061C104.591 135.453 104.085 134.15 103.462 134.15C102.839 134.15 102.334 135.453 102.334 137.061Z" fill="#FFB341"/>
<path d="M103.462 173.389C102.842 173.389 102.334 172.079 102.334 170.479C102.334 168.878 102.842 167.568 103.462 167.568C104.083 167.568 104.591 168.878 104.591 170.479C104.591 172.104 104.083 173.389 103.462 173.389Z" fill="#FFB341"/>
<path d="M102.334 203.922C102.334 205.529 102.839 206.832 103.462 206.832C104.085 206.832 104.591 205.529 104.591 203.922C104.591 202.315 104.085 201.012 103.462 201.012C102.839 201.012 102.334 202.315 102.334 203.922Z" fill="#FFB341"/>
<path d="M102.334 237.34C102.334 238.948 102.839 240.25 103.462 240.25C104.085 240.25 104.591 238.948 104.591 237.34C104.591 235.733 104.085 234.43 103.462 234.43C102.839 234.43 102.334 235.733 102.334 237.34Z" fill="#FFB341"/>
<path d="M103.462 273.67C102.842 273.67 102.334 272.361 102.334 270.76C102.334 269.159 102.842 267.85 103.462 267.85C104.083 267.85 104.591 269.159 104.591 270.76C104.591 272.361 104.083 273.67 103.462 273.67Z" fill="#FFB341"/>
<path d="M102.334 304.179C102.334 305.786 102.839 307.089 103.462 307.089C104.085 307.089 104.591 305.786 104.591 304.179C104.591 302.571 104.085 301.268 103.462 301.268C102.839 301.268 102.334 302.571 102.334 304.179Z" fill="#FFB341"/>
<path d="M102.334 337.598C102.334 339.205 102.839 340.508 103.462 340.508C104.085 340.508 104.591 339.205 104.591 337.598C104.591 335.991 104.085 334.688 103.462 334.688C102.839 334.688 102.334 335.991 102.334 337.598Z" fill="#FFB341"/>
<path d="M102.334 371.016C102.334 372.624 102.839 373.927 103.462 373.927C104.085 373.927 104.591 372.624 104.591 371.016C104.591 369.409 104.085 368.106 103.462 368.106C102.839 368.106 102.334 369.409 102.334 371.016Z" fill="#FFB341"/>
<path d="M89.6588 3.3846C89.6588 4.99185 90.164 6.29468 90.7872 6.29468C91.4103 6.29468 91.9155 4.99185 91.9155 3.3846C91.9155 1.77734 91.4103 0.474365 90.7872 0.474365C90.164 0.474365 89.6588 1.77734 89.6588 3.3846Z" fill="#FFB341"/>
<path d="M89.6588 36.8031C89.6588 38.4104 90.164 39.7133 90.7872 39.7133C91.4103 39.7133 91.9155 38.4104 91.9155 36.8031C91.9155 35.1958 91.4103 33.8928 90.7872 33.8928C90.164 33.8928 89.6588 35.1958 89.6588 36.8031Z" fill="#FFB341"/>
<path d="M89.6588 70.2225C89.6588 71.8298 90.164 73.1328 90.7872 73.1328C91.4103 73.1328 91.9155 71.8298 91.9155 70.2225C91.9155 68.6152 91.4103 67.3123 90.7872 67.3123C90.164 67.3123 89.6588 68.6152 89.6588 70.2225Z" fill="#FFB341"/>
<path d="M89.6588 103.641C89.6588 105.248 90.164 106.551 90.7872 106.551C91.4103 106.551 91.9155 105.248 91.9155 103.641C91.9155 102.033 91.4103 100.73 90.7872 100.73C90.164 100.73 89.6588 102.033 89.6588 103.641Z" fill="#FFB341"/>
<path d="M89.6588 137.061C89.6588 138.668 90.164 139.971 90.7872 139.971C91.4103 139.971 91.9155 138.668 91.9155 137.061C91.9155 135.453 91.4103 134.15 90.7872 134.15C90.164 134.15 89.6588 135.453 89.6588 137.061Z" fill="#FFB341"/>
<path d="M90.7874 173.389C90.1668 173.389 89.6591 172.079 89.6591 170.479C89.6591 168.878 90.1668 167.568 90.7874 167.568C91.408 167.568 91.9158 168.878 91.9158 170.479C91.9158 172.104 91.408 173.389 90.7874 173.389Z" fill="#FFB341"/>
<path d="M89.6591 203.922C89.6591 205.529 90.1643 206.832 90.7874 206.832C91.4106 206.832 91.9158 205.529 91.9158 203.922C91.9158 202.315 91.4106 201.012 90.7874 201.012C90.1643 201.012 89.6591 202.315 89.6591 203.922Z" fill="#FFB341"/>
<path d="M89.6591 237.341C89.6591 238.948 90.1643 240.251 90.7874 240.251C91.4106 240.251 91.9158 238.948 91.9158 237.341C91.9158 235.733 91.4106 234.43 90.7874 234.43C90.1643 234.43 89.6591 235.733 89.6591 237.341Z" fill="#FFB341"/>
<path d="M90.7874 273.67C90.1668 273.67 89.6591 272.361 89.6591 270.76C89.6591 269.159 90.1668 267.85 90.7874 267.85C91.408 267.85 91.9158 269.159 91.9158 270.76C91.9158 272.361 91.408 273.67 90.7874 273.67Z" fill="#FFB341"/>
<path d="M89.6591 304.179C89.6591 305.786 90.1643 307.089 90.7874 307.089C91.4106 307.089 91.9158 305.786 91.9158 304.179C91.9158 302.571 91.4106 301.268 90.7874 301.268C90.1643 301.268 89.6591 302.571 89.6591 304.179Z" fill="#FFB341"/>
<path d="M89.6591 337.598C89.6591 339.205 90.1643 340.508 90.7874 340.508C91.4106 340.508 91.9158 339.205 91.9158 337.598C91.9158 335.991 91.4106 334.688 90.7874 334.688C90.1643 334.688 89.6591 335.991 89.6591 337.598Z" fill="#FFB341"/>
<path d="M89.6588 371.016C89.6588 372.624 90.164 373.927 90.7872 373.927C91.4103 373.927 91.9155 372.624 91.9155 371.016C91.9155 369.409 91.4103 368.106 90.7872 368.106C90.164 368.106 89.6588 369.409 89.6588 371.016Z" fill="#FFB341"/>
<path d="M76.984 3.3846C76.984 4.99185 77.4892 6.29468 78.1123 6.29468C78.7355 6.29468 79.2407 4.99185 79.2407 3.3846C79.2407 1.77734 78.7355 0.474365 78.1123 0.474365C77.4892 0.474365 76.984 1.77734 76.984 3.3846Z" fill="#FFB341"/>
<path d="M76.9839 36.8031C76.9839 38.4104 77.489 39.7133 78.1122 39.7133C78.7353 39.7133 79.2405 38.4104 79.2405 36.8031C79.2405 35.1958 78.7353 33.8928 78.1122 33.8928C77.489 33.8928 76.9839 35.1958 76.9839 36.8031Z" fill="#FFB341"/>
<path d="M76.9839 70.2225C76.9839 71.8298 77.489 73.1328 78.1122 73.1328C78.7353 73.1328 79.2405 71.8298 79.2405 70.2225C79.2405 68.6152 78.7353 67.3123 78.1122 67.3123C77.489 67.3123 76.9839 68.6152 76.9839 70.2225Z" fill="#FFB341"/>
<path d="M76.9839 103.641C76.9839 105.248 77.489 106.551 78.1122 106.551C78.7353 106.551 79.2405 105.248 79.2405 103.641C79.2405 102.033 78.7353 100.73 78.1122 100.73C77.489 100.73 76.9839 102.033 76.9839 103.641Z" fill="#FFB341"/>
<path d="M76.9839 137.061C76.9839 138.668 77.489 139.971 78.1122 139.971C78.7353 139.971 79.2405 138.668 79.2405 137.061C79.2405 135.453 78.7353 134.15 78.1122 134.15C77.489 134.15 76.9839 135.453 76.9839 137.061Z" fill="#FFB341"/>
<path d="M78.1124 173.389C77.4918 173.389 76.9841 172.079 76.9841 170.479C76.9841 168.878 77.4918 167.568 78.1124 167.568C78.733 167.568 79.2407 168.878 79.2407 170.479C79.2313 172.104 78.733 173.389 78.1124 173.389Z" fill="#FFB341"/>
<path d="M76.9841 203.922C76.9841 205.529 77.4892 206.832 78.1124 206.832C78.7355 206.832 79.2407 205.529 79.2407 203.922C79.2407 202.315 78.7355 201.012 78.1124 201.012C77.4892 201.012 76.9841 202.315 76.9841 203.922Z" fill="#FFB341"/>
<path d="M76.9841 237.341C76.9841 238.948 77.4892 240.251 78.1124 240.251C78.7355 240.251 79.2407 238.948 79.2407 237.341C79.2407 235.733 78.7355 234.43 78.1124 234.43C77.4892 234.43 76.9841 235.733 76.9841 237.341Z" fill="#FFB341"/>
<path d="M78.1124 273.67C77.4918 273.67 76.9841 272.361 76.9841 270.76C76.9841 269.159 77.4918 267.85 78.1124 267.85C78.733 267.85 79.2407 269.159 79.2407 270.76C79.2313 272.361 78.733 273.67 78.1124 273.67Z" fill="#FFB341"/>
<path d="M76.9841 304.179C76.9841 305.786 77.4892 307.089 78.1124 307.089C78.7355 307.089 79.2407 305.786 79.2407 304.179C79.2407 302.571 78.7355 301.268 78.1124 301.268C77.4892 301.268 76.9841 302.571 76.9841 304.179Z" fill="#FFB341"/>
<path d="M76.9841 337.598C76.9841 339.205 77.4892 340.508 78.1124 340.508C78.7355 340.508 79.2407 339.205 79.2407 337.598C79.2407 335.991 78.7355 334.688 78.1124 334.688C77.4892 334.688 76.9841 335.991 76.9841 337.598Z" fill="#FFB341"/>
<path d="M76.9839 371.016C76.9839 372.624 77.489 373.927 78.1122 373.927C78.7353 373.927 79.2405 372.624 79.2405 371.016C79.2405 369.409 78.7353 368.106 78.1122 368.106C77.489 368.106 76.9839 369.409 76.9839 371.016Z" fill="#FFB341"/>
<path d="M65.428 6.29468C64.8074 6.29468 64.2997 4.98521 64.2997 3.3846C64.2997 1.78398 64.8074 0.474365 65.428 0.474365C66.0486 0.474365 66.5564 1.78399 66.5564 3.3846C66.5564 4.98521 66.058 6.29468 65.428 6.29468Z" fill="#FFB341"/>
<path d="M65.4278 39.7133C64.8072 39.7133 64.2995 38.4037 64.2995 36.8031C64.2995 35.2025 64.8072 33.8928 65.4278 33.8928C66.0484 33.8928 66.5562 35.2025 66.5562 36.8031C66.5562 38.4037 66.0578 39.7133 65.4278 39.7133Z" fill="#FFB341"/>
<path d="M65.4281 73.1328C64.8075 73.1328 64.2997 71.8231 64.2997 70.2225C64.2997 68.6219 64.8075 67.3123 65.4281 67.3123C66.0486 67.3123 66.5564 68.6219 66.5564 70.2225C66.5564 71.8231 66.058 73.1328 65.4281 73.1328Z" fill="#FFB341"/>
<path d="M65.4281 106.551C64.8075 106.551 64.2997 105.241 64.2997 103.641C64.2997 102.04 64.8075 100.73 65.4281 100.73C66.0486 100.73 66.5564 102.04 66.5564 103.641C66.5564 105.241 66.058 106.551 65.4281 106.551Z" fill="#FFB341"/>
<path d="M65.4281 139.971C64.8075 139.971 64.2997 138.661 64.2997 137.061C64.2997 135.46 64.8075 134.15 65.4281 134.15C66.0486 134.15 66.5564 135.46 66.5564 137.061C66.5564 138.685 66.058 139.971 65.4281 139.971Z" fill="#FFB341"/>
<path d="M65.4281 173.389C64.8075 173.389 64.2997 172.079 64.2997 170.479C64.2997 168.878 64.8075 167.568 65.4281 167.568C66.0486 167.568 66.5564 168.878 66.5564 170.479C66.5564 172.104 66.058 173.389 65.4281 173.389Z" fill="#FFB341"/>
<path d="M65.4281 206.808C64.8075 206.808 64.2997 205.498 64.2997 203.897C64.2997 202.297 64.8075 200.987 65.4281 200.987C66.0486 200.987 66.5564 202.297 66.5564 203.897C66.5564 205.522 66.058 206.808 65.4281 206.808Z" fill="#FFB341"/>
<path d="M65.4281 240.251C64.8075 240.251 64.2997 238.941 64.2997 237.341C64.2997 235.74 64.8075 234.43 65.4281 234.43C66.0486 234.43 66.5564 235.74 66.5564 237.341C66.5564 238.941 66.058 240.251 65.4281 240.251Z" fill="#FFB341"/>
<path d="M65.4281 273.67C64.8075 273.67 64.2997 272.361 64.2997 270.76C64.2997 269.159 64.8075 267.85 65.4281 267.85C66.0486 267.85 66.5564 269.159 66.5564 270.76C66.5564 272.361 66.058 273.67 65.4281 273.67Z" fill="#FFB341"/>
<path d="M65.4281 307.089C64.8075 307.089 64.2997 305.779 64.2997 304.179C64.2997 302.578 64.8075 301.268 65.4281 301.268C66.0486 301.268 66.5564 302.578 66.5564 304.179C66.5564 305.779 66.058 307.089 65.4281 307.089Z" fill="#FFB341"/>
<path d="M65.4281 340.508C64.8075 340.508 64.2997 339.199 64.2997 337.598C64.2997 335.997 64.8075 334.688 65.4281 334.688C66.0486 334.688 66.5564 335.997 66.5564 337.598C66.5564 339.199 66.058 340.508 65.4281 340.508Z" fill="#FFB341"/>
<path d="M65.4281 373.927C64.8075 373.927 64.2997 372.617 64.2997 371.016C64.2997 369.416 64.8075 368.106 65.4281 368.106C66.0486 368.106 66.5564 369.416 66.5564 371.016C66.5564 372.641 66.058 373.927 65.4281 373.927Z" fill="#FFB341"/>
<path d="M51.6246 3.3846C51.6246 4.99185 52.1298 6.29468 52.753 6.29468C53.3762 6.29468 53.8813 4.99185 53.8813 3.3846C53.8813 1.77734 53.3762 0.474365 52.753 0.474365C52.1298 0.474365 51.6246 1.77734 51.6246 3.3846Z" fill="#FFB341"/>
<path d="M51.6247 36.8031C51.6247 38.4104 52.1298 39.7133 52.753 39.7133C53.3762 39.7133 53.8813 38.4104 53.8813 36.8031C53.8813 35.1958 53.3762 33.8928 52.753 33.8928C52.1298 33.8928 51.6247 35.1958 51.6247 36.8031Z" fill="#FFB341"/>
<path d="M51.6247 70.2227C51.6247 71.83 52.1298 73.133 52.753 73.133C53.3762 73.133 53.8813 71.83 53.8813 70.2227C53.8813 68.6155 53.3762 67.3125 52.753 67.3125C52.1298 67.3125 51.6247 68.6155 51.6247 70.2227Z" fill="#FFB341"/>
<path d="M51.6247 103.641C51.6247 105.248 52.1298 106.551 52.753 106.551C53.3762 106.551 53.8813 105.248 53.8813 103.641C53.8813 102.033 53.3762 100.73 52.753 100.73C52.1298 100.73 51.6247 102.033 51.6247 103.641Z" fill="#FFB341"/>
<path d="M51.6247 137.061C51.6247 138.668 52.1298 139.971 52.753 139.971C53.3762 139.971 53.8813 138.668 53.8813 137.061C53.8813 135.453 53.3762 134.15 52.753 134.15C52.1298 134.15 51.6247 135.453 51.6247 137.061Z" fill="#FFB341"/>
<path d="M52.753 173.389C52.1324 173.389 51.6247 172.079 51.6247 170.479C51.6247 168.878 52.1324 167.568 52.753 167.568C53.3736 167.568 53.8813 168.878 53.8813 170.479C53.8813 172.104 53.3736 173.389 52.753 173.389Z" fill="#FFB341"/>
<path d="M51.6247 203.922C51.6247 205.529 52.1298 206.832 52.753 206.832C53.3762 206.832 53.8813 205.529 53.8813 203.922C53.8813 202.315 53.3762 201.012 52.753 201.012C52.1298 201.012 51.6247 202.315 51.6247 203.922Z" fill="#FFB341"/>
<path d="M51.6247 237.341C51.6247 238.948 52.1298 240.251 52.753 240.251C53.3762 240.251 53.8813 238.948 53.8813 237.341C53.8813 235.733 53.3762 234.43 52.753 234.43C52.1298 234.43 51.6247 235.733 51.6247 237.341Z" fill="#FFB341"/>
<path d="M52.753 273.67C52.1324 273.67 51.6247 272.361 51.6247 270.76C51.6247 269.159 52.1324 267.85 52.753 267.85C53.3736 267.85 53.8813 269.159 53.8813 270.76C53.8813 272.361 53.3736 273.67 52.753 273.67Z" fill="#FFB341"/>
<path d="M51.6247 304.179C51.6247 305.786 52.1298 307.089 52.753 307.089C53.3762 307.089 53.8813 305.786 53.8813 304.179C53.8813 302.571 53.3762 301.268 52.753 301.268C52.1298 301.268 51.6247 302.571 51.6247 304.179Z" fill="#FFB341"/>
<path d="M51.6247 337.598C51.6247 339.205 52.1298 340.508 52.753 340.508C53.3762 340.508 53.8813 339.205 53.8813 337.598C53.8813 335.991 53.3762 334.688 52.753 334.688C52.1298 334.688 51.6247 335.991 51.6247 337.598Z" fill="#FFB341"/>
<path d="M51.6247 371.016C51.6247 372.624 52.1298 373.927 52.753 373.927C53.3762 373.927 53.8813 372.624 53.8813 371.016C53.8813 369.409 53.3762 368.106 52.753 368.106C52.1298 368.106 51.6247 369.409 51.6247 371.016Z" fill="#FFB341"/>
<path d="M38.9499 3.3846C38.9499 4.99185 39.4551 6.29468 40.0782 6.29468C40.7014 6.29468 41.2065 4.99185 41.2065 3.3846C41.2065 1.77734 40.7014 0.474365 40.0782 0.474365C39.4551 0.474365 38.9499 1.77734 38.9499 3.3846Z" fill="#FFB341"/>
<path d="M38.95 36.8031C38.95 38.4104 39.4551 39.7133 40.0783 39.7133C40.7014 39.7133 41.2065 38.4104 41.2065 36.8031C41.2065 35.1958 40.7014 33.8928 40.0783 33.8928C39.4551 33.8928 38.95 35.1958 38.95 36.8031Z" fill="#FFB341"/>
<path d="M38.95 70.2227C38.95 71.83 39.4551 73.133 40.0783 73.133C40.7014 73.133 41.2065 71.83 41.2065 70.2227C41.2065 68.6155 40.7014 67.3125 40.0783 67.3125C39.4551 67.3125 38.95 68.6155 38.95 70.2227Z" fill="#FFB341"/>
<path d="M38.95 103.641C38.95 105.248 39.4551 106.551 40.0783 106.551C40.7014 106.551 41.2065 105.248 41.2065 103.641C41.2065 102.033 40.7014 100.73 40.0783 100.73C39.4551 100.73 38.95 102.033 38.95 103.641Z" fill="#FFB341"/>
<path d="M38.95 137.061C38.95 138.668 39.4551 139.971 40.0783 139.971C40.7014 139.971 41.2065 138.668 41.2065 137.061C41.2065 135.453 40.7014 134.15 40.0783 134.15C39.4551 134.15 38.95 135.453 38.95 137.061Z" fill="#FFB341"/>
<path d="M40.0783 173.389C39.4577 173.389 38.95 172.079 38.95 170.479C38.95 168.878 39.4577 167.568 40.0783 167.568C40.6988 167.568 41.2065 168.878 41.2065 170.479C41.2065 172.104 40.6988 173.389 40.0783 173.389Z" fill="#FFB341"/>
<path d="M38.95 203.922C38.95 205.529 39.4551 206.832 40.0783 206.832C40.7014 206.832 41.2065 205.529 41.2065 203.922C41.2065 202.315 40.7014 201.012 40.0783 201.012C39.4551 201.012 38.95 202.315 38.95 203.922Z" fill="#FFB341"/>
<path d="M38.95 237.341C38.95 238.948 39.4551 240.251 40.0783 240.251C40.7014 240.251 41.2065 238.948 41.2065 237.341C41.2065 235.733 40.7014 234.43 40.0783 234.43C39.4551 234.43 38.95 235.733 38.95 237.341Z" fill="#FFB341"/>
<path d="M40.0783 273.67C39.4577 273.67 38.95 272.361 38.95 270.76C38.95 269.159 39.4577 267.85 40.0783 267.85C40.6988 267.85 41.2065 269.159 41.2065 270.76C41.2065 272.361 40.6988 273.67 40.0783 273.67Z" fill="#FFB341"/>
<path d="M38.95 304.179C38.95 305.786 39.4551 307.089 40.0783 307.089C40.7014 307.089 41.2065 305.786 41.2065 304.179C41.2065 302.571 40.7014 301.268 40.0783 301.268C39.4551 301.268 38.95 302.571 38.95 304.179Z" fill="#FFB341"/>
<path d="M38.95 337.598C38.95 339.205 39.4551 340.508 40.0783 340.508C40.7014 340.508 41.2065 339.205 41.2065 337.598C41.2065 335.991 40.7014 334.688 40.0783 334.688C39.4551 334.688 38.95 335.991 38.95 337.598Z" fill="#FFB341"/>
<path d="M38.95 371.016C38.95 372.624 39.4551 373.927 40.0783 373.927C40.7014 373.927 41.2065 372.624 41.2065 371.016C41.2065 369.409 40.7014 368.106 40.0783 368.106C39.4551 368.106 38.95 369.409 38.95 371.016Z" fill="#FFB341"/>
<path d="M26.275 3.3846C26.275 4.99185 26.7802 6.29468 27.4034 6.29468C28.0265 6.29468 28.5317 4.99185 28.5317 3.3846C28.5317 1.77734 28.0265 0.474365 27.4034 0.474365C26.7802 0.474365 26.275 1.77734 26.275 3.3846Z" fill="#FFB341"/>
<path d="M26.2751 36.8031C26.2751 38.4104 26.7802 39.7133 27.4034 39.7133C28.0266 39.7133 28.5317 38.4104 28.5317 36.8031C28.5317 35.1958 28.0266 33.8928 27.4034 33.8928C26.7802 33.8928 26.2751 35.1958 26.2751 36.8031Z" fill="#FFB341"/>
<path d="M26.2751 70.2227C26.2751 71.83 26.7802 73.133 27.4034 73.133C28.0266 73.133 28.5317 71.83 28.5317 70.2227C28.5317 68.6155 28.0266 67.3125 27.4034 67.3125C26.7802 67.3125 26.2751 68.6155 26.2751 70.2227Z" fill="#FFB341"/>
<path d="M26.2751 103.641C26.2751 105.248 26.7802 106.551 27.4034 106.551C28.0266 106.551 28.5317 105.248 28.5317 103.641C28.5317 102.033 28.0266 100.73 27.4034 100.73C26.7802 100.73 26.2751 102.033 26.2751 103.641Z" fill="#FFB341"/>
<path d="M26.2751 137.061C26.2751 138.668 26.7802 139.971 27.4034 139.971C28.0266 139.971 28.5317 138.668 28.5317 137.061C28.5317 135.453 28.0266 134.15 27.4034 134.15C26.7802 134.15 26.2751 135.453 26.2751 137.061Z" fill="#FFB341"/>
<path d="M27.4034 173.389C26.7828 173.389 26.2751 172.079 26.2751 170.479C26.2751 168.878 26.7828 167.568 27.4034 167.568C28.024 167.568 28.5317 168.878 28.5317 170.479C28.5317 172.104 28.024 173.389 27.4034 173.389Z" fill="#FFB341"/>
<path d="M26.2751 203.922C26.2751 205.529 26.7802 206.832 27.4034 206.832C28.0266 206.832 28.5317 205.529 28.5317 203.922C28.5317 202.315 28.0266 201.012 27.4034 201.012C26.7802 201.012 26.2751 202.315 26.2751 203.922Z" fill="#FFB341"/>
<path d="M26.2751 237.341C26.2751 238.948 26.7802 240.251 27.4034 240.251C28.0266 240.251 28.5317 238.948 28.5317 237.341C28.5317 235.733 28.0266 234.43 27.4034 234.43C26.7802 234.43 26.2751 235.733 26.2751 237.341Z" fill="#FFB341"/>
<path d="M27.4034 273.67C26.7828 273.67 26.2751 272.361 26.2751 270.76C26.2751 269.159 26.7828 267.85 27.4034 267.85C28.024 267.85 28.5317 269.159 28.5317 270.76C28.5317 272.361 28.024 273.67 27.4034 273.67Z" fill="#FFB341"/>
<path d="M26.2751 304.179C26.2751 305.786 26.7802 307.089 27.4034 307.089C28.0266 307.089 28.5317 305.786 28.5317 304.179C28.5317 302.571 28.0266 301.268 27.4034 301.268C26.7802 301.268 26.2751 302.571 26.2751 304.179Z" fill="#FFB341"/>
<path d="M26.2751 337.598C26.2751 339.205 26.7802 340.508 27.4034 340.508C28.0266 340.508 28.5317 339.205 28.5317 337.598C28.5317 335.991 28.0266 334.688 27.4034 334.688C26.7802 334.688 26.2751 335.991 26.2751 337.598Z" fill="#FFB341"/>
<path d="M26.2751 371.016C26.2751 372.624 26.7802 373.927 27.4034 373.927C28.0266 373.927 28.5317 372.624 28.5317 371.016C28.5317 369.409 28.0266 368.106 27.4034 368.106C26.7802 368.106 26.2751 369.409 26.2751 371.016Z" fill="#FFB341"/>
<path d="M13.6 3.3846C13.6 4.99185 14.1052 6.29468 14.7283 6.29468C15.3515 6.29468 15.8567 4.99185 15.8567 3.3846C15.8567 1.77734 15.3515 0.474365 14.7283 0.474365C14.1052 0.474365 13.6 1.77734 13.6 3.3846Z" fill="#FFB341"/>
<path d="M13.6 36.8031C13.6 38.4104 14.1052 39.7133 14.7283 39.7133C15.3515 39.7133 15.8567 38.4104 15.8567 36.8031C15.8567 35.1958 15.3515 33.8928 14.7283 33.8928C14.1052 33.8928 13.6 35.1958 13.6 36.8031Z" fill="#FFB341"/>
<path d="M13.6 70.2227C13.6 71.83 14.1052 73.133 14.7283 73.133C15.3515 73.133 15.8567 71.83 15.8567 70.2227C15.8567 68.6155 15.3515 67.3125 14.7283 67.3125C14.1052 67.3125 13.6 68.6155 13.6 70.2227Z" fill="#FFB341"/>
<path d="M13.6 103.641C13.6 105.248 14.1052 106.551 14.7283 106.551C15.3515 106.551 15.8567 105.248 15.8567 103.641C15.8567 102.033 15.3515 100.73 14.7283 100.73C14.1052 100.73 13.6 102.033 13.6 103.641Z" fill="#FFB341"/>
<path d="M13.6 137.061C13.6 138.668 14.1052 139.971 14.7283 139.971C15.3515 139.971 15.8567 138.668 15.8567 137.061C15.8567 135.453 15.3515 134.15 14.7283 134.15C14.1052 134.15 13.6 135.453 13.6 137.061Z" fill="#FFB341"/>
<path d="M14.7283 173.389C14.1078 173.389 13.6 172.079 13.6 170.479C13.6 168.878 14.1078 167.568 14.7283 167.568C15.3489 167.568 15.8567 168.878 15.8567 170.479C15.8473 172.104 15.3489 173.389 14.7283 173.389Z" fill="#FFB341"/>
<path d="M13.6 203.922C13.6 205.529 14.1052 206.832 14.7283 206.832C15.3515 206.832 15.8567 205.529 15.8567 203.922C15.8567 202.315 15.3515 201.012 14.7283 201.012C14.1052 201.012 13.6 202.315 13.6 203.922Z" fill="#FFB341"/>
<path d="M13.6 237.341C13.6 238.948 14.1052 240.251 14.7283 240.251C15.3515 240.251 15.8567 238.948 15.8567 237.341C15.8567 235.733 15.3515 234.43 14.7283 234.43C14.1052 234.43 13.6 235.733 13.6 237.341Z" fill="#FFB341"/>
<path d="M14.7283 273.67C14.1078 273.67 13.6 272.361 13.6 270.76C13.6 269.159 14.1078 267.85 14.7283 267.85C15.3489 267.85 15.8567 269.159 15.8567 270.76C15.8473 272.361 15.3489 273.67 14.7283 273.67Z" fill="#FFB341"/>
<path d="M13.6 304.179C13.6 305.786 14.1052 307.089 14.7283 307.089C15.3515 307.089 15.8567 305.786 15.8567 304.179C15.8567 302.571 15.3515 301.268 14.7283 301.268C14.1052 301.268 13.6 302.571 13.6 304.179Z" fill="#FFB341"/>
<path d="M13.6 337.598C13.6 339.205 14.1052 340.508 14.7283 340.508C15.3515 340.508 15.8567 339.205 15.8567 337.598C15.8567 335.991 15.3515 334.688 14.7283 334.688C14.1052 334.688 13.6 335.991 13.6 337.598Z" fill="#FFB341"/>
<path d="M13.6 371.016C13.6 372.624 14.1052 373.927 14.7283 373.927C15.3515 373.927 15.8567 372.624 15.8567 371.016C15.8567 369.409 15.3515 368.106 14.7283 368.106C14.1052 368.106 13.6 369.409 13.6 371.016Z" fill="#FFB341"/>
<path d="M0.91568 3.3846C0.91568 4.99185 1.42086 6.29468 2.04402 6.29468C2.66718 6.29468 3.17236 4.99185 3.17236 3.3846C3.17236 1.77734 2.66718 0.474365 2.04402 0.474365C1.42086 0.474365 0.91568 1.77734 0.91568 3.3846Z" fill="#FFB341"/>
<path d="M0.91568 36.8031C0.91568 38.4104 1.42086 39.7133 2.04402 39.7133C2.66718 39.7133 3.17236 38.4104 3.17236 36.8031C3.17236 35.1958 2.66718 33.8928 2.04402 33.8928C1.42086 33.8928 0.91568 35.1958 0.91568 36.8031Z" fill="#FFB341"/>
<path d="M0.91568 70.2227C0.91568 71.83 1.42086 73.133 2.04402 73.133C2.66718 73.133 3.17236 71.83 3.17236 70.2227C3.17236 68.6155 2.66718 67.3125 2.04402 67.3125C1.42086 67.3125 0.91568 68.6155 0.91568 70.2227Z" fill="#FFB341"/>
<path d="M0.91568 103.641C0.91568 105.248 1.42086 106.551 2.04402 106.551C2.66718 106.551 3.17236 105.248 3.17236 103.641C3.17236 102.033 2.66718 100.73 2.04402 100.73C1.42086 100.73 0.91568 102.033 0.91568 103.641Z" fill="#FFB341"/>
<path d="M0.91568 137.061C0.91568 138.668 1.42086 139.971 2.04402 139.971C2.66718 139.971 3.17236 138.668 3.17236 137.061C3.17236 135.453 2.66718 134.15 2.04402 134.15C1.42086 134.15 0.91568 135.453 0.91568 137.061Z" fill="#FFB341"/>
<path d="M2.04402 173.389C1.42344 173.389 0.91568 172.079 0.91568 170.479C0.91568 168.878 1.42344 167.568 2.04402 167.568C2.6646 167.568 3.17236 168.878 3.17236 170.479C3.17236 172.104 2.67401 173.389 2.04402 173.389Z" fill="#FFB341"/>
<path d="M0.91568 203.922C0.91568 205.529 1.42086 206.832 2.04402 206.832C2.66718 206.832 3.17236 205.529 3.17236 203.922C3.17236 202.315 2.66718 201.012 2.04402 201.012C1.42086 201.012 0.91568 202.315 0.91568 203.922Z" fill="#FFB341"/>
<path d="M0.91568 237.341C0.91568 238.948 1.42086 240.251 2.04402 240.251C2.66718 240.251 3.17236 238.948 3.17236 237.341C3.17236 235.733 2.66718 234.43 2.04402 234.43C1.42086 234.43 0.91568 235.733 0.91568 237.341Z" fill="#FFB341"/>
<path d="M2.04402 273.67C1.42344 273.67 0.91568 272.361 0.91568 270.76C0.91568 269.159 1.42344 267.85 2.04402 267.85C2.6646 267.85 3.17236 269.159 3.17236 270.76C3.17236 272.361 2.67401 273.67 2.04402 273.67Z" fill="#FFB341"/>
<path d="M0.91568 304.179C0.91568 305.786 1.42086 307.089 2.04402 307.089C2.66718 307.089 3.17236 305.786 3.17236 304.179C3.17236 302.571 2.66718 301.268 2.04402 301.268C1.42086 301.268 0.91568 302.571 0.91568 304.179Z" fill="#FFB341"/>
<path d="M0.91568 337.598C0.91568 339.205 1.42086 340.508 2.04402 340.508C2.66718 340.508 3.17236 339.205 3.17236 337.598C3.17236 335.991 2.66718 334.688 2.04402 334.688C1.42086 334.688 0.91568 335.991 0.91568 337.598Z" fill="#FFB341"/>
<path d="M0.91568 371.016C0.91568 372.624 1.42086 373.927 2.04402 373.927C2.66718 373.927 3.17236 372.624 3.17236 371.016C3.17236 369.409 2.66718 368.106 2.04402 368.106C1.42086 368.106 0.91568 369.409 0.91568 371.016Z" fill="#FFB341"/>
<!-- Code injected by live-server -->
<script type="text/javascript">
	// <![CDATA[  <-- For SVG support
	if ('WebSocket' in window) {
		(function () {
			function refreshCSS() {
				var sheets = [].slice.call(document.getElementsByTagName("link"));
				var head = document.getElementsByTagName("head")[0];
				for (var i = 0; i < sheets.length; ++i) {
					var elem = sheets[i];
					var parent = elem.parentElement || head;
					parent.removeChild(elem);
					var rel = elem.rel;
					if (elem.href && typeof rel != "string" || rel.length == 0 || rel.toLowerCase() == "stylesheet") {
						var url = elem.href.replace(/(&|\?)_cacheOverride=\d+/, '');
						elem.href = url + (url.indexOf('?') >= 0 ? '&' : '?') + '_cacheOverride=' + (new Date().valueOf());
					}
					parent.appendChild(elem);
				}
			}
			var protocol = window.location.protocol === 'http:' ? 'ws://' : 'wss://';
			var address = protocol + window.location.host + window.location.pathname + '/ws';
			var socket = new WebSocket(address);
			socket.onmessage = function (msg) {
				if (msg.data == 'reload') window.location.reload();
				else if (msg.data == 'refreshcss') refreshCSS();
			};
			if (sessionStorage && !sessionStorage.getItem('IsThisFirstTime_Log_From_LiveServer')) {
				console.log('Live reload enabled.');
				sessionStorage.setItem('IsThisFirstTime_Log_From_LiveServer', true);
			}
		})();
	}
	else {
		console.error('Upgrade your browser. This Browser is NOT supported WebSocket for Live-Reloading.');
	}
	// ]]>
</script></svg>
